<svg width="16" height="16" viewBox="0 0 16 16" fill="none" xmlns="http://www.w3.org/2000/svg">
  <path d="M13.545 2.907C12.594 2.472 11.572 2.157 10.508 2C10.392 2.201 10.258 2.472 10.165 2.692C9.027 2.548 7.901 2.548 6.788 2.692C6.695 2.472 6.558 2.201 6.441 2C5.376 2.157 4.353 2.473 3.403 2.908C1.097 6.233 0.489 9.478 0.798 12.678C2.064 13.62 3.29 14.19 4.492 14.567C4.758 14.207 4.994 13.821 5.197 13.413C4.802 13.264 4.424 13.081 4.067 12.868C4.157 12.802 4.245 12.733 4.33 12.661C7.145 13.956 10.221 13.956 13.001 12.661C13.087 12.733 13.175 12.802 13.264 12.868C12.907 13.082 12.528 13.265 12.133 13.414C12.336 13.821 12.571 14.208 12.838 14.568C14.041 14.191 15.268 13.621 16.533 12.679C16.9 9.035 15.9 5.823 13.545 2.907ZM5.678 10.7C4.931 10.7 4.317 10.007 4.317 9.156C4.317 8.305 4.916 7.611 5.678 7.611C6.44 7.611 7.054 8.305 7.04 9.156C7.04 10.007 6.44 10.7 5.678 10.7ZM10.653 10.7C9.906 10.7 9.292 10.007 9.292 9.156C9.292 8.305 9.891 7.611 10.653 7.611C11.415 7.611 12.029 8.305 12.015 9.156C12.015 10.007 11.415 10.7 10.653 10.7Z" fill="currentColor"/>
</svg> 