<svg width="16" height="16" viewBox="0 0 16 16" fill="none" xmlns="http://www.w3.org/2000/svg">
<path fill-rule="evenodd" clip-rule="evenodd" d="M8.66671 2.66666C8.66671 1.93028 9.26366 1.33333 10 1.33333H13.3334C14.0698 1.33333 14.6667 1.93028 14.6667 2.66666V6C14.6667 6.73637 14.0698 7.33333 13.3334 7.33333H10C9.26366 7.33333 8.66671 6.73637 8.66671 6V2.66666ZM13.3334 2.66666H10V6H13.3334V2.66666ZM1.7239 4.39052C1.97395 4.14047 2.31309 3.99999 2.66671 3.99999H6.00004C6.35366 3.99999 6.6928 4.14047 6.94285 4.39052C7.1929 4.64057 7.33337 4.97971 7.33337 5.33333V8.66666H10.6667C11.0203 8.66666 11.3595 8.80714 11.6095 9.05719C11.8596 9.30724 12 9.64637 12 10V13.3333C12 13.6869 11.8596 14.0261 11.6095 14.2761C11.3595 14.5262 11.0203 14.6667 10.6667 14.6667H2.66671C2.31309 14.6667 1.97395 14.5262 1.7239 14.2761C1.47385 14.0261 1.33337 13.6869 1.33337 13.3333V5.33333C1.33337 4.97971 1.47385 4.64057 1.7239 4.39052ZM2.66671 10V13.3333H6.00004V10H2.66671ZM6.00004 8.66666H2.66671V5.33333H6.00004V8.66666ZM7.33337 10V13.3333H10.6667V10H7.33337Z" fill="#FAFAFA"/>
</svg>
