<svg width="24" height="25" viewBox="0 0 24 25" fill="none" xmlns="http://www.w3.org/2000/svg">
<path fill-rule="evenodd" clip-rule="evenodd" d="M7.05025 3.3481C8.36301 2.03535 10.1435 1.29785 12 1.29785C13.8565 1.29785 15.637 2.03535 16.9497 3.3481C18.2625 4.66086 19 6.44134 19 8.29785C19 9.83632 18.4119 11.4106 17.1899 12.5222C16.4678 13.2472 16.1244 13.7748 15.9806 14.494C15.8723 15.0355 15.3454 15.3867 14.8039 15.2784C14.2623 15.1701 13.9111 14.6433 14.0194 14.1017C14.2744 12.8266 14.9268 11.9569 15.7929 11.0907C15.8053 11.0784 15.818 11.0663 15.831 11.0546C16.5948 10.3672 17 9.35064 17 8.29785C17 6.97177 16.4732 5.7 15.5355 4.76232C14.5979 3.82464 13.3261 3.29785 12 3.29785C10.6739 3.29785 9.40215 3.82464 8.46447 4.76232C7.52678 5.7 7 6.97177 7 8.29785C7 9.1021 7.13863 10.0223 8.20711 11.0907C8.96334 11.847 9.72386 12.8181 9.98058 14.1017C10.0889 14.6433 9.73768 15.1701 9.19612 15.2784C8.65456 15.3867 8.12773 15.0355 8.01942 14.494C7.87614 13.7776 7.43666 13.1487 6.79289 12.505C5.26137 10.9734 5 9.4936 5 8.29785C5 6.44134 5.7375 4.66086 7.05025 3.3481ZM8 18.2979C8 17.7456 8.44772 17.2979 9 17.2979H15C15.5523 17.2979 16 17.7456 16 18.2979C16 18.8501 15.5523 19.2979 15 19.2979H9C8.44772 19.2979 8 18.8501 8 18.2979ZM9 22.2979C9 21.7456 9.44772 21.2979 10 21.2979H14C14.5523 21.2979 15 21.7456 15 22.2979C15 22.8501 14.5523 23.2979 14 23.2979H10C9.44772 23.2979 9 22.8501 9 22.2979Z" fill="#A3A3A3"/>
</svg>
