<svg width="200" height="120" viewBox="0 0 200 120" fill="none" xmlns="http://www.w3.org/2000/svg">
<g clip-path="url(#clip0_283_1167)">
<path d="M148.944 69.265C145.942 65.8272 142.837 62.2732 141.542 58.2734C138.713 49.5235 139.408 44.4375 140.455 36.7425C141.057 32.3314 141.806 26.8435 141.991 19.34C142.207 10.6058 140.336 4.74423 136.438 1.91864C133.097 -0.501944 128.334 -0.633805 122.289 1.53248C117.867 3.11481 113.533 5.12098 109.343 7.05808C101.578 10.6497 94.2445 14.0404 88.3374 13.6857C86.3036 13.5632 83.8185 13.2524 80.9417 12.8913C70.2681 11.5539 55.6522 9.71727 48.1719 15.8394C45.8655 17.7262 44.6872 21.0071 44.5744 25.8702C44.471 30.1934 45.2011 35.3422 45.9031 40.3215C47.0312 48.296 48.197 56.5436 45.9689 61.57C41.0238 72.7373 39.0777 81.5877 40.021 88.6297C40.9925 95.8946 45.0319 101.276 52.368 105.081C56.8368 107.398 61.1394 108.016 65.6991 108.669C71.9039 109.558 78.9361 110.566 88.1619 116.066C92.6212 118.725 96.5541 120 100.474 120C101.794 120 103.113 119.856 104.451 119.57C110.515 118.276 116.977 114.066 124.792 106.324C128.813 102.34 133.648 100.023 138.327 97.7814C143.73 95.1945 149.314 92.5196 153.545 87.2671C158.885 80.6395 154.059 75.1171 148.948 69.2713L148.944 69.265ZM48.7485 51.3947C48.595 47.8219 48.548 44.2648 48.8582 40.9526C49.3596 35.5588 50.7604 31.6219 53.1358 28.9187C56.3072 25.3114 61.0517 22.6647 67.6389 20.8313C73.3235 19.2489 79.3121 18.5488 84.5957 17.9335L85.4261 17.8361C89.4217 17.3683 93.7055 16.3291 98.237 15.2303C103.223 14.0216 108.381 12.7689 113.533 12.1975C114.451 12.097 115.357 12.0437 116.225 12.0437C120.317 12.0437 123.768 13.1802 126.478 15.4218C129.271 17.7294 131.267 21.2017 132.411 25.7415C133.752 31.0662 134.564 35.1821 135.35 39.163C135.858 41.7312 136.35 44.2271 136.958 46.8863C136.569 45.395 136.203 43.9603 135.842 42.5443C134.579 37.5776 133.385 32.8902 131.348 26.5798C129.85 21.9395 127.412 18.4578 124.106 16.2318C120.891 14.0687 116.902 13.1174 112.245 13.4094C106.51 13.7673 100.757 14.9886 95.1909 16.1722C91.6028 16.9351 88.212 17.654 84.9717 18.1155C79.4062 18.9099 73.4959 19.8925 68.0055 21.7103C61.5155 23.8546 56.8055 26.7587 53.6059 30.5827C51.0801 33.5998 49.579 37.8853 49.0149 43.6777C48.7705 46.1736 48.7141 48.7732 48.7485 51.4041V51.3947ZM48.4446 50.7103C48.1845 46.5316 48.0058 42.3246 48.3318 38.4975C48.7736 33.3078 50.1149 29.5655 52.4276 27.057C55.5143 23.7102 60.1147 21.3273 66.4919 19.7732C72.0011 18.4295 77.8393 17.9335 82.9912 17.4939C83.9846 17.4091 84.9247 17.3307 85.8366 17.2459C90.3493 16.8315 95.3069 15.4658 100.553 14.0184C105.191 12.7406 109.989 11.4189 114.796 10.6748C116.052 10.4802 117.278 10.3797 118.431 10.3797C122.467 10.3797 125.817 11.5759 128.387 13.9337C131.035 16.3637 132.843 20.0212 133.768 24.8059C134.758 29.9296 135.325 34.0268 135.823 37.6435C136.331 41.3199 136.798 44.6792 137.603 48.4184C136.81 45.1502 136.224 42.177 135.62 39.1003C134.833 35.1162 134.021 30.9971 132.677 25.6661C131.395 20.5801 129.058 16.8221 125.733 14.5019C122.499 12.2446 118.384 11.3749 113.502 11.9149C108.334 12.4863 103.166 13.7422 98.1711 14.9509C93.646 16.0497 89.3715 17.0858 85.3916 17.5504L84.5612 17.6478C74.2637 18.8502 60.1586 20.4953 52.9258 28.7272C50.5097 31.4743 49.0901 35.4647 48.5825 40.9181C48.291 44.0325 48.3161 47.3573 48.4446 50.704V50.7103ZM141.298 76.7873C138.478 83.8544 133.695 89.0284 128.634 94.5038C128.142 95.0343 127.647 95.5712 127.149 96.1144C119.286 104.676 111.286 108.742 101.979 108.905C100.778 108.927 99.7412 108.939 98.7916 108.949C100.261 108.867 101.784 108.751 103.364 108.597C105.655 108.374 107.898 107.932 110.032 107.275C112.167 106.622 114.266 105.734 116.272 104.641C118.271 103.552 120.245 102.218 122.138 100.679C124.018 99.1503 125.886 97.3639 127.685 95.3703C130.057 92.7425 132.799 89.5998 135.128 86.2279C137.5 82.7901 139.242 79.4089 140.455 75.8926C142.32 70.4831 141.442 65.1271 139.976 59.5795C141.922 65.4599 143.592 71.0514 141.301 76.7873H141.298ZM140.624 60.3675C140.659 60.4586 140.696 60.5528 140.731 60.6438C142.996 66.4928 145.137 72.0184 142.523 77.8202C139.731 84.0146 135.419 88.4036 130.85 93.0502C129.562 94.3594 128.233 95.7125 126.908 97.1316C122.818 101.521 118.854 104.651 114.799 106.701C110.841 108.698 106.783 109.671 102.392 109.671C101.813 109.671 101.217 109.652 100.622 109.621C98.8856 109.52 97.184 109.439 95.5388 109.36C95.3351 109.351 95.1314 109.341 94.9246 109.332C95.5074 109.338 96.0903 109.341 96.6701 109.341C98.4594 109.341 100.239 109.316 101.982 109.285C111.399 109.118 119.484 105.018 127.422 96.3749C127.92 95.8318 128.421 95.2887 128.907 94.7644C131.508 91.9482 133.968 89.289 136.149 86.4226C138.6 83.2046 140.345 80.1875 141.646 76.9318C143.868 71.3685 142.457 65.9904 140.624 60.3707V60.3675ZM140.073 75.7607C137.353 83.6567 132.313 89.6438 127.387 95.1003C123.771 99.1063 120.073 102.111 116.081 104.287C112.073 106.472 107.901 107.75 103.323 108.195C103.119 108.214 102.919 108.233 102.718 108.252C103.392 108.151 104.066 108.041 104.743 107.919C106.986 107.514 109.189 106.911 111.292 106.129C113.37 105.357 115.407 104.387 117.34 103.251C119.255 102.123 121.123 100.802 122.89 99.3198C124.642 97.8537 126.344 96.1897 127.945 94.3782C130.696 91.27 132.915 88.2781 134.733 85.2296C135.711 83.5876 136.582 81.9048 137.318 80.2283C138.089 78.4764 138.744 76.6712 139.261 74.8596C140.207 71.5506 140.493 68.0029 140.126 64.0094C139.976 62.3737 139.722 60.6721 139.343 58.7883C140.931 64.5933 141.997 70.1692 140.073 75.7576V75.7607ZM138.844 74.7435C137.829 78.2912 136.362 81.6505 134.36 85.0098C132.558 88.0332 130.355 91.0063 127.622 94.0925C121.734 100.742 114.808 105.071 107.008 106.993C128.437 100.736 141.724 79.6851 138.735 57.9972C139.925 63.5102 140.433 69.1991 138.844 74.7435ZM136.742 36.9402C136.438 33.2827 136.093 29.1385 135.338 23.8609C134.463 17.7451 132.248 13.3811 128.754 10.8946C125.51 8.58389 121.223 7.93087 116.012 8.95122C111.402 9.85227 106.827 11.2682 102.402 12.6339C96.5917 14.4297 91.1045 16.1251 86.2315 16.4516C84.9091 16.5395 83.4895 16.6117 81.9852 16.6839C76.8709 16.9382 71.0766 17.2271 65.6082 18.3542C59.2529 19.6633 54.6588 21.8547 51.5689 25.0477C46.4108 30.3755 47.2067 40.7108 47.9902 50.7197C47.9244 49.9819 47.8586 49.2378 47.7896 48.4875C46.8871 38.576 45.9532 28.3285 51.0174 23.3366C54.0885 20.3101 58.6606 18.3228 64.9971 17.2585C70.4687 16.3386 76.2661 16.2632 81.3804 16.1941C83.2701 16.169 85.0563 16.1439 86.6608 16.078C91.8535 15.8614 97.8108 13.8238 104.119 11.6669C108.406 10.2008 112.837 8.68436 117.309 7.64203C119.155 7.21191 120.907 6.99215 122.514 6.99215C126.497 6.99215 129.703 8.31703 132.047 10.926C134.463 13.6166 135.955 17.6697 136.485 22.9693C137.042 28.5577 137.18 32.8588 137.302 36.6514C137.487 42.4093 137.632 46.8424 139.079 52.6976C137.566 46.8738 137.193 42.3905 136.738 36.9371L136.742 36.9402ZM51.7225 25.1984C54.7842 22.0368 59.3407 19.8674 65.6521 18.5645C71.1048 17.4405 76.8929 17.1517 81.9978 16.8974C83.502 16.8221 84.9247 16.753 86.2503 16.6619C91.1452 16.3354 96.645 14.6369 102.468 12.838C106.886 11.4723 111.458 10.0595 116.056 9.15843C117.619 8.85075 119.12 8.69692 120.518 8.69692C124.52 8.69692 127.791 9.95587 130.239 12.4361C132.762 14.9948 134.407 18.8471 135.128 23.886C135.88 29.1573 136.224 33.2984 136.528 36.9528C136.914 41.6025 137.243 45.5489 138.268 50.2174C137.19 45.7153 136.657 41.8725 136.068 37.6058C135.566 33.9891 134.999 29.8857 134.009 24.7557C132.94 19.2238 130.703 15.1926 127.359 12.772C124.106 10.4205 119.869 9.6325 114.758 10.4237C109.935 11.1709 105.131 12.4958 100.487 13.7736C95.2505 15.2146 90.3054 16.5772 85.8147 16.9916C84.9028 17.0764 83.9658 17.1548 82.9724 17.2396C77.8111 17.6791 71.9635 18.1752 66.4355 19.5252C60.0113 21.0918 55.3702 23.4967 52.249 26.8812C49.8955 29.4305 48.5354 33.2199 48.0873 38.4692C47.7708 42.1958 47.9306 46.2773 48.1782 50.3398C47.4073 40.4911 46.6959 30.388 51.7256 25.1921L51.7225 25.1984ZM126.024 30.1996C123.624 27.3301 120.784 24.9441 117.585 23.1043C114.429 21.2928 110.941 20.0244 107.218 19.34C104.241 18.7811 101.12 18.4986 97.911 18.4986C97.0587 18.4986 96.1969 18.5174 95.3319 18.5582C91.3928 18.7403 87.3471 19.3337 83.3014 20.3226C80.5469 20.9976 77.8549 21.883 75.2978 22.963C72.7093 24.0556 70.243 25.3491 67.9648 26.8121C65.6364 28.3065 63.4804 29.9924 61.5562 31.8228C59.5757 33.7065 57.8177 35.7629 56.3291 37.9418C54.6745 40.3843 53.305 43.1408 52.2552 46.1328C51.2618 48.9773 50.5473 52.0603 50.1368 55.3003C50.1023 55.5734 50.071 55.8497 50.0428 56.1229C50.0835 55.3411 50.1399 54.5719 50.2089 53.8216C50.8764 46.6195 52.8162 40.736 55.975 36.3343C58.9176 32.2341 63.0166 28.7178 68.1591 25.8796C72.7312 23.3554 77.996 21.434 83.8028 20.1625C90.7065 18.6524 96.7421 17.9178 102.254 17.9178C104.385 17.9178 106.463 18.0308 108.428 18.2537C116.366 19.1579 122.793 23.0509 127.017 29.5121C129.879 33.8886 132.119 37.9951 133.996 42.3968C133.714 41.816 133.426 41.2414 133.125 40.6763C131.201 37.0407 128.879 33.6123 126.024 30.1965V30.1996ZM133.047 41.4832C125.078 27.8042 110.34 19.3211 94.5266 19.3211C92.1418 19.3211 89.7319 19.5158 87.3158 19.9114C90.9039 19.2615 94.4545 18.9318 97.9142 18.9318C101.089 18.9318 104.191 19.2112 107.134 19.7638C114.558 21.1326 120.972 24.8373 125.689 30.4759C128.638 34.0048 131.063 37.6215 133.047 41.48V41.4832ZM82.7561 20.9097C65.2008 25.7038 52.9509 40.3624 50.3593 57.3065C50.4157 56.6503 50.4846 55.9973 50.5661 55.3537C51.4122 48.701 53.4711 42.9242 56.6864 38.1835C59.6102 33.9043 63.4835 30.2028 68.1967 27.1763C72.5557 24.3789 77.4507 22.2723 82.7561 20.9066V20.9097ZM50.0146 81.9048C50.6476 85.4744 51.7005 88.7364 53.1421 91.606C54.6055 94.5163 56.514 97.1127 58.8142 99.3198C61.1457 101.555 63.9536 103.467 67.1625 104.996C71.0641 106.852 75.0064 107.863 79.1617 108.519C74.3451 107.856 69.8889 106.902 65.4327 104.754C62.1987 103.194 59.4127 101.251 57.1533 98.9808C54.9252 96.7423 53.1264 94.105 51.8102 91.1413C50.5129 88.2247 49.6385 84.8873 49.2029 81.2204C48.7799 77.6256 48.7642 73.585 49.1622 69.2085C49.2499 68.2509 49.297 67.2525 49.3189 66.2165C49.3502 67.623 49.3502 68.9793 49.3032 70.2696C49.1497 74.4798 49.3878 78.3948 50.0114 81.9016L50.0146 81.9048ZM67.2973 104.717C64.1197 103.2 61.3369 101.31 59.0304 99.0969C56.7522 96.9118 54.8657 94.3468 53.4179 91.4678C51.992 88.6265 50.9484 85.3928 50.3186 81.8514C49.6981 78.3634 49.463 74.4735 49.6166 70.2822C49.6323 69.8175 49.6448 69.3466 49.6479 68.8663C49.6824 69.7139 49.7075 70.5459 49.7231 71.3591C49.8015 75.384 50.259 79.1514 51.0769 82.5578C51.9042 85.9987 53.1233 89.1603 54.7027 91.9545C56.2978 94.7801 58.3034 97.3042 60.66 99.4611C63.0448 101.64 65.8526 103.502 69.0083 104.987C72.5275 106.641 76.122 107.655 79.8668 108.311C75.4921 107.665 71.3649 106.654 67.291 104.717H67.2973ZM127.353 29.2923C123.063 22.7275 116.532 18.7749 108.472 17.855C101.386 17.0481 93.2887 17.6729 83.712 19.7701C80.9072 20.3823 78.184 21.164 75.6174 22.0902C72.8879 23.0729 70.312 24.2314 67.9617 25.528C62.7659 28.3944 58.623 31.9515 55.6428 36.0989C53.9631 38.4378 52.6125 41.2069 51.6285 44.3245C50.7353 47.1469 50.1211 50.3304 49.8015 53.7839C49.7764 54.0539 49.7545 54.3239 49.7325 54.6002C49.7607 53.6646 49.8015 52.7353 49.8673 51.8123C50.3906 44.2554 52.1549 38.5854 55.2605 34.482C58.2501 30.5293 62.581 27.2014 68.1309 24.5861C72.6717 22.4481 78.0774 20.7653 84.204 19.5817C91.2455 18.2192 99.2241 16.6776 107.011 16.6776C107.927 16.6776 108.835 16.6996 109.71 16.7436C118.127 17.158 124.573 21.2425 128.349 28.5577C131.198 34.077 133.185 38.7047 134.883 43.4925C132.893 38.5916 130.493 34.1021 127.35 29.2923H127.353ZM134.269 40.7454C132.718 36.6859 130.944 32.7584 128.685 28.385C124.843 20.9443 118.29 16.7907 109.732 16.37C101.057 15.943 92.0666 17.6823 84.135 19.2144C77.9803 20.4043 72.5432 22.0965 67.9742 24.2471C62.3679 26.8874 57.99 30.253 54.9659 34.2559C51.8165 38.4221 50.0271 44.1549 49.4975 51.7872C49.4599 52.3523 49.4286 52.9174 49.4035 53.4856C49.4098 51.3037 49.4881 49.1437 49.6855 47.0307C50.2778 40.7108 51.8698 36.0015 54.5523 32.6297C56.1599 30.6078 58.1937 28.7712 60.6004 27.1606C62.7627 25.7164 65.2917 24.4135 68.1152 23.2927C72.6435 21.4937 77.8863 20.128 84.6113 19.0009C86.6922 18.6524 88.7949 18.2505 91.0262 17.8236C97.5538 16.5772 104.307 15.29 110.995 15.2272C111.079 15.2272 111.164 15.2272 111.248 15.2272C120.01 15.2272 126.391 19.5095 129.703 27.6095C132.32 34.0048 133.959 38.9433 135.588 44.3778C135.153 43.1157 134.717 41.9164 134.272 40.7485L134.269 40.7454ZM130.016 27.4777C128.299 23.2801 125.764 20.0746 122.477 17.9429C119.343 15.9116 115.567 14.8818 111.245 14.8818C111.161 14.8818 111.073 14.8818 110.988 14.8818C104.269 14.9446 97.5037 16.235 90.9604 17.4845C88.7322 17.9083 86.6295 18.3102 84.5549 18.6587C77.8048 19.7921 72.5432 21.1609 67.9899 22.9724C65.1444 24.1027 62.5935 25.4181 60.4124 26.8749C57.9775 28.5012 55.9155 30.366 54.289 32.413C51.5627 35.8383 49.9488 40.6072 49.3502 46.9962C49.1873 48.7261 49.1058 50.4905 49.0776 52.2675C49.018 49.3477 49.0588 46.4562 49.3283 43.6965C49.8861 37.9669 51.3652 33.7411 53.8472 30.771C57.0091 26.991 61.6722 24.1215 68.1058 21.996C73.5742 20.1876 79.4688 19.205 85.0187 18.4138C88.2716 17.9492 91.6654 17.2302 95.2599 16.4641C100.813 15.2837 106.557 14.0655 112.267 13.7076C112.803 13.6731 113.335 13.6574 113.856 13.6574C118.03 13.6574 121.609 14.7374 124.492 16.8691C127.456 19.0637 129.665 22.3602 131.054 26.6645C133.088 32.9624 134.278 37.6498 135.541 42.6103C135.786 43.5678 136.03 44.5348 136.284 45.5206C134.523 39.5712 132.837 34.3721 130.016 27.4777ZM49.04 63.3846C49.0807 65.441 49.0525 67.3907 48.8896 69.1834C48.4884 73.5787 48.5041 77.6381 48.9303 81.2518C49.3659 84.947 50.2496 88.3126 51.5595 91.2543C52.8914 94.2495 54.7058 96.9149 56.959 99.1754C59.2404 101.467 62.0514 103.429 65.3136 105.002C70.1428 107.329 74.9562 108.264 80.2241 108.936C74.2135 108.176 68.9425 107.407 63.5712 104.792C50.7354 98.5224 46.0159 86.8715 48.7141 68.1285C48.9272 66.6592 49.018 65.0643 49.0368 63.3815L49.04 63.3846ZM69.1588 104.679C66.0344 103.207 63.2547 101.367 60.895 99.2099C58.5635 97.0782 56.583 94.5823 55.0035 91.7881C51.9074 86.3064 50.2496 79.4842 50.071 71.5098C50.071 71.516 50.071 71.5192 50.071 71.5255C50.0961 71.8331 50.118 72.1408 50.1431 72.4453C50.7479 80.1655 52.8036 86.8496 56.2539 92.3092C59.7449 97.8317 64.6587 102.095 70.8604 104.977C73.1324 106.032 75.4827 106.861 78.0461 107.511C78.9142 107.731 79.8041 107.932 80.7161 108.107C76.7111 107.461 72.8879 106.431 69.1588 104.676V104.679ZM71.0171 104.638C64.8812 101.788 60.0207 97.5711 56.5673 92.1083C53.5025 87.2577 51.547 81.4276 50.7447 74.7529C51.8572 81.5908 54.2232 87.6125 57.7863 92.6671C59.654 95.3169 61.8602 97.6998 64.3422 99.7468C66.8398 101.809 69.6539 103.564 72.7093 104.965C75.5454 106.261 78.535 107.238 81.7502 107.916C77.7985 107.222 74.2731 106.145 71.0171 104.635V104.638ZM72.8785 104.601C66.8116 101.819 61.8445 97.7281 58.1154 92.438C55.1853 88.2812 53.0731 83.462 51.8102 78.0683C52.4401 80.3193 53.2298 82.4919 54.17 84.5577C55.5582 87.6093 57.2849 90.4663 59.3062 93.0439C61.3118 95.5995 63.6214 97.907 66.1754 99.9038C68.7294 101.901 71.5529 103.602 74.5614 104.962C76.8145 105.979 79.1899 106.811 81.628 107.439C81.9884 107.53 82.3519 107.618 82.7154 107.702C79.1774 107.024 75.9151 105.995 72.8785 104.607V104.601ZM74.74 104.56C68.7326 101.847 63.6527 97.8788 59.6478 92.7707C56.9621 89.3424 54.8406 85.5027 53.305 81.302C58.8612 94.6702 70.4185 104.189 83.8812 107.505C80.6847 106.848 77.6293 105.863 74.74 104.56ZM80.3432 105.988C75.8462 104.459 71.6407 102.23 67.8488 99.3575C64.0162 96.4566 60.707 92.9811 58.0119 89.0253C55.2229 84.9344 53.1483 80.4104 51.8478 75.5786C50.2966 69.8081 49.9174 63.9089 50.7228 58.0411C51.5031 52.3711 53.3458 46.9711 56.2069 41.9886C59.068 37.0062 62.8003 32.6924 67.3004 29.1667C71.9603 25.5186 77.2407 22.8782 83.0006 21.3242C86.7768 20.3038 90.6532 19.7858 94.5297 19.7858C99.3369 19.7858 104.091 20.5738 108.66 22.1279C113.157 23.6568 117.362 25.8891 121.154 28.7586C124.987 31.6595 128.296 35.135 130.991 39.0908C133.78 43.1817 135.855 47.7057 137.152 52.5375C138.703 58.308 139.082 64.2072 138.277 70.075C137.497 75.745 135.654 81.145 132.793 86.1275C129.932 91.1099 126.2 95.4237 121.699 98.9494C117.04 102.598 111.759 105.238 105.999 106.792C102.223 107.812 98.3435 108.33 94.4702 108.33C89.663 108.33 84.909 107.542 80.34 105.991L80.3432 105.988ZM95.52 109.696C97.1652 109.775 98.8668 109.859 100.603 109.957C101.205 109.991 101.803 110.01 102.392 110.01C106.532 110.01 110.387 109.153 114.122 107.407C118.503 105.36 122.768 102.076 127.158 97.3639C128.481 95.9448 129.81 94.5948 131.094 93.2888C135.685 88.6203 140.019 84.2124 142.837 77.9615C145.413 72.2444 143.492 66.8413 141.295 61.1555C141.426 61.4538 141.558 61.7489 141.69 62.044C144.225 67.7329 146.616 73.1078 143.749 78.8563C140.897 84.5734 136.735 88.4759 132.332 92.6075C130.477 94.3499 128.556 96.152 126.673 98.1456C122.542 102.522 118.619 105.633 114.68 107.662C110.875 109.621 107.03 110.572 102.928 110.572C101.741 110.572 100.509 110.49 99.2617 110.33C96.3222 109.95 93.5488 109.693 90.8601 109.457C92.3831 109.545 93.9343 109.621 95.52 109.696ZM140.938 57.3693C138.268 48.9741 138.575 43.7374 138.995 36.4882C139.239 32.3126 139.512 27.5781 139.33 21.1452C139.089 13.4502 137.067 8.18203 133.323 5.48202C130.032 3.11167 125.476 2.77888 119.778 4.49621C115.372 5.81482 111.035 7.56982 106.842 9.26831C99.832 12.1065 93.2041 14.7908 87.6511 14.7908C87.5978 14.7908 87.5445 14.7908 87.4944 14.7908C85.5859 14.7719 83.2952 14.6401 80.8696 14.4988C70.6692 13.9054 56.6958 13.0954 49.532 19.5221C44.4239 24.1058 45.621 34.3595 46.7774 44.2805C47.6549 51.7966 48.4822 58.8951 46.8025 63.7457C43.1203 74.3856 42.0015 82.7839 43.3867 89.4271C44.8251 96.331 48.9742 101.445 56.0659 105.056C60.7634 107.448 65.3575 108.114 70.2211 108.817C76.0499 109.661 82.6559 110.619 90.9259 114.704C94.7365 116.584 98.2401 117.51 101.668 117.51C103.314 117.51 104.943 117.297 106.579 116.873C112.207 115.413 118.337 111.31 125.316 104.324C128.942 100.676 133.16 98.3089 137.24 96.0233C142.432 93.1129 147.337 90.3627 151.163 85.1919C155.879 78.8186 151.671 73.3935 147.218 67.6513C146.842 67.1678 146.466 66.6811 146.09 66.1914C146.716 66.9825 147.362 67.7611 148.001 68.5366C152.758 74.2977 157.249 79.7354 152.266 86.162C148.258 91.3548 142.912 94.1208 137.738 96.7956C133.351 99.0655 128.813 101.414 124.974 105.244C117.544 112.641 111.352 116.732 105.485 118.113C100.308 119.334 95.404 118.462 89.5909 115.288C80.807 110.49 73.9628 109.501 67.924 108.629C63.2391 107.95 58.8173 107.313 54.2608 104.971C47.0814 101.279 43.0075 96.061 41.8104 89.0127C40.6509 82.1968 42.1802 73.5881 46.4797 62.6939C48.4414 57.724 47.4292 49.8626 46.4484 42.2618C45.1698 32.3565 43.8505 22.1153 48.9146 17.7608C53.3144 14.0027 60.2526 12.9918 67.3474 12.9918C72.0011 12.9918 76.7268 13.4282 80.8446 13.805C83.4519 14.0436 85.915 14.2727 87.9049 14.3418C88.0867 14.3481 88.2684 14.3512 88.4502 14.3512C94.1255 14.3512 100.951 11.3875 108.165 8.25424C112.342 6.43959 116.663 4.56214 121.06 3.11481C126.895 1.18399 131.521 1.41004 134.808 3.78667C138.6 6.52749 140.53 12.0656 140.546 20.241C140.546 27.192 140.057 32.1838 139.621 36.5886C138.869 44.2146 138.371 49.2535 141.129 57.8527C141.273 58.2986 141.436 58.7381 141.618 59.1714C141.354 58.578 141.119 57.9783 140.928 57.3693H140.938ZM147.121 67.7266C149.377 70.6338 151.508 73.3809 152.52 76.2285C153.059 77.7512 153.231 79.164 153.046 80.5579C152.84 82.112 152.191 83.6033 151.066 85.1228C147.255 90.2717 142.36 93.0156 137.18 95.9228C133.094 98.2147 128.869 100.582 125.231 104.243C120.568 108.908 116.385 112.223 112.439 114.371C108.701 116.408 105.166 117.397 101.634 117.397C98.1022 117.397 94.8462 116.509 90.9792 114.597C82.6903 110.503 76.075 109.545 70.2368 108.698C65.3826 107.994 60.801 107.332 56.1192 104.949C49.0619 101.354 44.9348 96.2682 43.5058 89.402C42.1269 82.7807 43.2425 74.4013 46.9153 63.7833C48.6044 58.9076 47.7739 51.7934 46.8934 44.2648C45.7401 34.3752 44.5462 24.1529 49.6072 19.61C51.8823 17.5693 54.9221 16.1502 58.9019 15.2711C62.0952 14.5647 65.8777 14.2225 70.4655 14.2225C74.0694 14.2225 77.6763 14.4329 80.8602 14.6181C83.2858 14.7594 85.5797 14.8912 87.4913 14.9101C87.5445 14.9101 87.5978 14.9101 87.6511 14.9101C93.2261 14.9101 99.8634 12.2226 106.886 9.3782C111.076 7.67971 115.41 5.92784 119.813 4.61237C122.176 3.8997 124.366 3.53865 126.331 3.53865C130.302 3.53865 133.413 5.00168 135.579 7.88378C137.804 10.8475 139.026 15.3119 139.211 21.1483C139.393 27.5781 139.117 32.3063 138.876 36.4819C138.453 43.7436 138.149 48.9898 140.825 57.4069C140.925 57.724 141.038 58.038 141.157 58.3488C140.963 57.8779 140.79 57.4038 140.637 56.9203C138.07 48.7732 138.149 43.6495 138.252 36.5541C138.312 32.57 138.377 28.0585 138.001 22.0494C137.553 14.885 135.466 9.91506 131.8 7.28098C128.525 4.92633 124.056 4.48679 118.525 5.98121C114.084 7.16168 109.703 8.80366 105.467 10.3891C98.776 12.8913 92.4583 15.2586 87.0745 15.3433C85.2882 15.3716 83.2199 15.3245 81.0326 15.2743C71.0014 15.0451 57.263 14.7343 50.212 21.365C45.104 26.1685 46.1695 36.4254 47.2005 46.3463C47.9369 53.4166 48.6295 60.0944 47.2224 64.8351C44.1513 75.1799 43.4431 83.349 45.057 89.8133C46.7367 96.5476 50.9453 101.53 57.9179 105.049C62.7815 107.498 67.5793 108.189 72.656 108.917C78.2467 109.721 84.5831 110.632 92.311 114.029C95.7895 115.558 99.0079 116.311 102.148 116.311C103.997 116.311 105.818 116.05 107.648 115.529C113.1 113.981 118.964 109.991 125.579 103.332C128.992 99.8693 132.887 97.4989 136.654 95.207C141.633 92.1774 146.337 89.3141 149.972 84.159C154.381 77.905 150.48 72.5207 146.35 66.8193C145.93 66.2416 145.51 65.6577 145.093 65.0706C145.754 65.9685 146.441 66.8507 147.121 67.7266ZM146.227 66.9072C148.318 69.7924 150.292 72.5144 151.223 75.3274C152.266 78.4795 151.831 81.258 149.85 84.0679C146.234 89.1979 141.542 92.0518 136.575 95.072C132.799 97.3702 128.898 99.7437 125.472 103.219C120.913 107.809 116.801 111.065 112.903 113.178C109.202 115.181 105.677 116.157 102.129 116.157C99.0455 116.157 95.8553 115.413 92.3737 113.884C84.627 110.481 78.278 109.567 72.678 108.764C67.3913 108.004 62.8254 107.348 57.9869 104.908C51.055 101.411 46.8714 96.4597 45.2043 89.7725C43.5998 83.3364 44.308 75.1924 47.3697 64.8759C48.7861 60.1069 48.0905 53.4166 47.354 46.3306C46.3261 36.4473 45.2638 26.225 50.3186 21.4749C52.9008 19.048 56.5015 17.3935 61.3275 16.4139C66.1033 15.4469 71.3242 15.3339 74.8371 15.3339C76.9806 15.3339 79.0426 15.381 81.0357 15.425C82.775 15.4658 84.4171 15.5003 85.9087 15.5003C86.3286 15.5003 86.7141 15.5003 87.0839 15.4909C92.4928 15.403 98.8261 13.0358 105.526 10.5273C109.76 8.9418 114.135 7.3061 118.569 6.12563C120.684 5.55423 122.665 5.2654 124.463 5.2654C128.434 5.2654 131.586 6.65935 133.837 9.40645C136.152 12.2352 137.503 16.4924 137.851 22.0557C138.227 28.0553 138.161 32.5669 138.102 36.5478C137.998 43.571 137.923 48.6696 140.402 56.6691C140.38 56.6032 140.355 56.5341 140.336 56.4682C137.879 48.5848 137.716 43.5772 137.494 36.6451C137.371 32.8494 137.234 28.5451 136.673 22.9504C136.008 16.3166 133.858 11.6544 130.283 9.08936C127.027 6.75354 122.649 6.20726 117.271 7.45994C112.79 8.50541 108.353 10.0218 104.063 11.4911C97.7669 13.6448 91.8221 15.6793 86.6546 15.8928C85.0563 15.9587 83.2701 15.9838 81.3804 16.0089C76.2599 16.078 70.453 16.1565 64.9689 17.0764C58.5948 18.1469 53.9882 20.15 50.8889 23.2047C45.7621 28.2563 46.6991 38.5508 47.6047 48.5032C48.2064 55.0931 48.7736 61.3219 47.6361 65.9182C45.1604 75.9459 44.8564 83.8827 46.7022 90.1806C48.6295 96.7485 52.9008 101.609 59.7637 105.034C64.8373 107.561 69.6633 108.242 75.2539 109.027C80.5594 109.775 86.5699 110.619 93.6899 113.344C96.8205 114.543 99.7412 115.14 102.58 115.14C104.655 115.14 106.686 114.823 108.729 114.189C114.015 112.553 119.612 108.676 125.839 102.331C129.02 99.0906 132.567 96.7423 135.996 94.4724C140.793 91.2952 145.322 88.2969 148.781 83.1198C152.884 76.9757 149.289 71.6228 145.482 65.9528C145.184 65.507 144.883 65.0611 144.585 64.6122C145.124 65.3845 145.676 66.1474 146.224 66.9009L146.227 66.9072ZM145.331 66.0627C147.255 68.9291 149.073 71.6353 149.925 74.4201C150.881 77.5377 150.467 80.2722 148.631 83.0256C145.193 88.1713 140.678 91.1602 135.899 94.328C132.461 96.6041 128.907 98.9588 125.711 102.211C121.27 106.735 117.231 109.944 113.367 112.026C109.697 114 106.165 114.961 102.574 114.961C99.7756 114.961 96.8926 114.377 93.7588 113.178C86.617 110.443 80.5939 109.596 75.2821 108.848C69.7103 108.063 64.8968 107.388 59.8483 104.871C53.0355 101.467 48.7924 96.6481 46.8808 90.1304C45.0444 83.8639 45.3484 75.9585 47.8147 65.9653C48.4728 63.2936 48.5637 60.085 48.4038 56.5781C48.6201 60.4523 48.6357 64.0314 48.0528 67.0108C46.1538 76.7026 46.2478 84.4039 48.338 90.548C50.516 96.9558 54.8594 101.69 61.6126 105.028C66.962 107.665 72.117 108.362 78.0868 109.165C83.0351 109.834 88.6414 110.588 95.075 112.672C97.8233 113.561 100.402 114.007 102.906 114.007C105.244 114.007 107.519 113.62 109.807 112.848C114.915 111.125 120.245 107.363 126.106 101.345C129.029 98.3403 132.223 96.039 135.306 93.8131C139.935 90.4726 144.31 87.3174 147.594 82.0963C151.395 76.0527 148.101 70.7155 144.617 65.0643C144.4 64.7158 144.184 64.3642 143.971 64.0125C144.419 64.7032 144.877 65.3845 145.334 66.0627H145.331ZM144.435 65.1742C146.196 68.028 147.857 70.7249 148.634 73.4877C149.502 76.577 149.114 79.277 147.415 81.977C144.153 87.1635 139.797 90.3062 135.184 93.6341C132.091 95.8663 128.891 98.1739 125.955 101.191C121.609 105.655 117.626 108.826 113.777 110.88C110.117 112.836 106.56 113.784 102.903 113.784C100.424 113.784 97.886 113.354 95.1439 112.465C88.6915 110.377 83.0758 109.621 78.1182 108.952C72.1672 108.148 67.0309 107.458 61.7098 104.833C55.0098 101.524 50.704 96.827 48.5417 90.4789C46.464 84.3693 46.3731 76.7057 48.2628 67.0516C48.6545 65.0486 48.7799 62.7818 48.7517 60.3424C48.8426 63.1586 48.8018 65.7832 48.4665 68.0971C45.7495 86.9595 50.5129 98.6919 63.4584 105.015C69.1807 107.803 74.7745 108.506 81.2519 109.316C85.9557 109.906 90.8193 110.515 96.4507 111.991C98.7728 112.6 100.973 112.905 103.11 112.905C105.758 112.905 108.309 112.437 110.879 111.495C115.805 109.69 120.869 106.042 126.362 100.346C128.998 97.6151 131.809 95.4017 134.526 93.2605C139.023 89.7191 143.272 86.3724 146.397 81.0571C149.9 75.0983 146.904 69.761 143.736 64.1099C143.598 63.8618 143.46 63.6138 143.319 63.3658C143.686 63.9717 144.056 64.5745 144.425 65.1742H144.435ZM143.529 64.2323C145.127 67.083 146.641 69.7799 147.34 72.5301C148.12 75.6069 147.757 78.2755 146.193 80.9347C143.091 86.2122 138.86 89.5433 134.382 93.069C131.659 95.2133 128.841 97.433 126.193 100.177C121.931 104.594 117.989 107.734 114.141 109.768C110.468 111.712 106.858 112.657 103.101 112.657C100.982 112.657 98.8292 112.361 96.5196 111.759C90.8726 110.28 85.7802 109.643 81.2864 109.081C81.0451 109.049 80.8038 109.021 80.5657 108.99C81.9852 109.169 83.4393 109.329 84.9373 109.492C88.9861 109.938 93.1728 110.399 97.839 111.319C99.644 111.674 101.399 111.853 103.11 111.853C106.165 111.853 109.095 111.285 111.963 110.142C116.707 108.252 121.505 104.726 126.632 99.3544C128.929 96.9495 131.32 94.8899 133.636 92.8995C138.055 89.1006 142.229 85.509 145.215 80.0273C148.427 74.1281 145.726 68.7627 142.865 63.0801C142.796 62.9419 142.727 62.8069 142.658 62.6688C142.946 63.1931 143.241 63.7143 143.529 64.2323ZM142.617 63.2025C145.444 68.816 148.114 74.1219 144.971 79.8892C142.009 85.3269 137.854 88.8997 133.457 92.6828C131.138 94.6796 128.738 96.7423 126.435 99.1566C122.245 103.546 118.324 106.66 114.451 108.685C110.734 110.628 107.03 111.57 103.135 111.57C101.433 111.57 99.7224 111.395 97.8985 111.037C93.8497 110.239 90.1675 109.787 86.6201 109.388C87.5539 109.473 88.5003 109.555 89.4655 109.64C92.5774 109.91 95.7926 110.189 99.2272 110.632C100.484 110.795 101.712 110.873 102.919 110.873C106.451 110.873 109.791 110.176 113.05 108.77C117.613 106.801 122.144 103.392 126.901 98.3529C128.779 96.3655 130.693 94.5666 132.549 92.8273C136.973 88.6736 141.154 84.7524 144.031 78.9882C146.964 73.1109 144.541 67.6732 141.978 61.9153C142.191 62.3454 142.407 62.7756 142.624 63.1994L142.617 63.2025ZM153.451 87.1886C149.236 92.4191 143.664 95.0877 138.274 97.6716C133.589 99.9163 128.741 102.236 124.708 106.236C116.908 113.966 110.465 118.163 104.426 119.451C99.152 120.575 94.1537 119.498 88.2214 115.959C78.9768 110.446 71.9321 109.439 65.7179 108.55C61.1708 107.9 56.8744 107.285 52.4244 104.974C45.1259 101.188 41.1084 95.8349 40.1401 88.6108C39.2 81.5908 41.1429 72.7593 46.0786 61.6139C48.3192 56.5593 47.1503 48.296 46.019 40.3027C45.3171 35.3297 44.59 30.184 44.6903 25.8702C44.8031 21.0447 45.9689 17.7922 48.2471 15.9273C52.2552 12.6465 58.3347 11.6669 64.7558 11.6669C70.2587 11.6669 76.0123 12.389 80.9292 13.0044C83.806 13.3654 86.291 13.6762 88.3311 13.7987C88.6194 13.8175 88.9109 13.8238 89.2086 13.8238C94.9841 13.8238 101.994 10.5806 109.393 7.15854C113.58 5.22144 117.911 3.21841 122.329 1.63608C128.337 -0.514502 133.062 -0.38892 136.372 2.00655C140.239 4.81016 142.091 10.6372 141.878 19.3306C141.693 26.8246 140.944 32.3126 140.345 36.7205C139.292 44.4343 138.6 49.5298 141.436 58.3048C141.524 58.5748 141.618 58.8417 141.721 59.1054C141.542 58.6816 141.383 58.2515 141.245 57.8182C138.493 49.241 138.992 44.2114 139.741 36.598C140.176 32.1901 140.668 27.1982 140.665 20.2379C140.649 12.0248 138.703 6.45842 134.883 3.69563C131.568 1.30015 126.911 1.06783 121.038 3.0112C116.635 4.46167 112.314 6.33912 108.133 8.15378C100.932 11.2808 94.1161 14.2414 88.4627 14.2414C88.281 14.2414 88.0992 14.2414 87.9206 14.2319C85.9338 14.1629 83.4738 13.9368 80.8665 13.6951C70.4499 12.7344 56.1818 11.422 48.8582 17.6729C43.7502 22.0651 45.0726 32.3377 46.3543 42.2712C47.3321 49.8595 48.3443 57.7052 46.3919 62.65C42.083 73.563 40.5537 82.1905 41.7164 89.0253C42.9197 96.1081 47.0124 101.351 54.2232 105.059C58.7923 107.407 63.2265 108.048 67.9178 108.726C73.9471 109.599 80.7819 110.585 89.547 115.372C93.7055 117.642 97.4002 118.741 101.067 118.741C102.546 118.741 104.022 118.562 105.517 118.21C111.402 116.823 117.613 112.726 125.056 105.313C128.882 101.492 133.41 99.1503 137.791 96.8835C142.975 94.2024 148.333 91.4302 152.354 86.2185C157.39 79.7259 152.871 74.2537 148.086 68.4581C148.004 68.3608 147.923 68.2603 147.841 68.163C148.18 68.5555 148.521 68.9448 148.86 69.3309C153.936 75.1391 158.731 80.627 153.454 87.1761L153.451 87.1886Z" fill="url(#paint0_radial_283_1167)"/>
<path d="M61.5346 64.7617L50.0619 55.0539H46.0695V72.661H51.1399V62.9532L62.5875 72.661H66.605V55.0539H61.5346V64.7617ZM23.099 72.661H40.7985V68.3346H28.1694V65.7695H40.5728V61.6691H28.1694V59.3803H40.7985V55.0539H23.099V72.661ZM12.9299 55.0539H0V72.661H5.07043V65.7946H12.9299C16.446 65.7946 18.8308 63.8826 18.8308 60.4384C18.8308 59.4588 18.5801 58.5515 18.1038 57.7226C17.126 56.0869 15.2677 55.0571 12.933 55.0571L12.9299 55.0539ZM12.3032 61.7194H5.04849V59.1292H12.3032C13.2809 59.1292 13.7604 59.5562 13.7604 60.4384C13.7604 61.3206 13.284 61.7225 12.3032 61.7225V61.7194ZM139.214 63.7068C142.301 63.5309 144.084 62.2217 144.084 59.7069C144.084 58.3223 143.583 57.192 142.602 56.3349C141.599 55.4809 140.217 55.0508 138.434 55.0508H125.003V72.6579H138.986C142.376 72.6579 144.661 70.7709 144.661 67.9798C144.661 65.1887 142.602 63.779 139.211 63.7036L139.214 63.7068ZM137.56 59.3803C138.462 59.3803 139.017 59.6817 139.017 60.564C139.017 61.4462 138.49 61.7225 137.56 61.7225H130.105L130.079 59.3835H137.56V59.3803ZM138.111 68.3095H130.126L130.101 65.7193H138.111C138.989 65.7193 139.568 66.1714 139.568 67.0787C139.568 67.9076 139.092 68.3126 138.111 68.3126V68.3095ZM86.4919 64.2593C86.4919 67.0505 84.8091 68.5355 81.973 68.5355C79.137 68.5355 77.4541 67.0505 77.4541 64.2593V55.0539H72.3837V63.5058C72.3837 70.7992 75.975 73.0629 81.973 73.0629C87.971 73.0629 91.5623 70.7992 91.5623 63.5058V55.0539H86.4919V64.2593ZM161.386 64.1337H163.194C166.635 64.1337 168.844 62.498 168.844 59.7069C168.844 56.9157 166.735 55.0539 163.194 55.0539H149.01V72.661H154.081L154.056 65.5686H157.318C158.246 65.5686 159.026 65.7444 159.628 66.1211C160.229 66.4979 160.834 67.1258 161.461 68.0332C162.088 68.9625 162.993 70.4978 164.197 72.661H170.373C169.371 70.5731 168.465 68.9625 167.663 67.8071C166.055 65.4932 164.222 64.3096 161.386 64.1337ZM154.053 61.7194L154.028 59.1292H162.313C163.291 59.1292 163.771 59.531 163.771 60.4384C163.771 61.3458 163.294 61.7225 162.313 61.7225H154.053V61.7194ZM189.48 55.0539H184.03L173.51 72.661H179.511L181.169 69.694H192.341L193.999 72.661H200L189.48 55.0539ZM183.579 65.3676L186.766 59.6315L189.928 65.3676H183.576H183.579ZM108.159 65.5434L101.13 55.0539H97.0872V72.661H102.158V64.2593L107.629 72.661H108.685L114.157 64.2593V72.661H119.227V55.0539H115.185L108.156 65.5434H108.159Z" fill="white"/>
</g>
<defs>
<radialGradient id="paint0_radial_283_1167" cx="0" cy="0" r="1" gradientUnits="userSpaceOnUse" gradientTransform="translate(97.8296 59.9939) scale(58.9712 59.0799)">
<stop offset="0.13" stop-color="#563C70"/>
<stop offset="0.32" stop-color="#E1813B"/>
<stop offset="0.74" stop-color="#FF902F"/>
<stop offset="0.76" stop-color="#F99336"/>
<stop offset="0.8" stop-color="#EA9E4C"/>
<stop offset="0.84" stop-color="#D2B070"/>
<stop offset="0.89" stop-color="#B1C8A0"/>
<stop offset="0.94" stop-color="#8BE4D9"/>
</radialGradient>
<clipPath id="clip0_283_1167">
<rect width="200" height="120" fill="white"/>
</clipPath>
</defs>
</svg>
