<svg width="132" height="40" viewBox="0 0 132 40" fill="none" xmlns="http://www.w3.org/2000/svg">
<g clip-path="url(#clip0_351_1193)">
<path d="M33.4306 21.7795C32.5282 20.7482 31.5948 19.682 31.2058 18.482C30.3553 15.8571 30.5644 14.3312 30.879 12.0227C31.0598 10.6994 31.2849 9.05304 31.3405 6.80199C31.4055 4.18173 30.8432 2.42327 29.6715 1.57559C28.6674 0.849417 27.2357 0.809859 25.4188 1.45974C24.0898 1.93444 22.7872 2.53629 21.5279 3.11742C19.1939 4.19491 16.9899 5.21213 15.2144 5.1057C14.6031 5.06896 13.8562 4.97572 12.9915 4.8674C9.78345 4.46617 5.39047 3.91518 3.14218 5.75181C2.44895 6.31787 2.0948 7.30212 2.06089 8.76107C2.02981 10.058 2.24927 11.6027 2.46025 13.0965C2.79933 15.4888 3.14971 17.9631 2.48003 19.471C0.993726 22.8212 0.408812 25.4763 0.692321 27.5889C0.984307 29.7684 2.1984 31.3827 4.40337 32.5243C5.74651 33.2194 7.03972 33.4049 8.41017 33.6008C10.2751 33.8674 12.3887 34.1697 15.1616 35.8198C16.502 36.6176 17.684 37 18.8623 37C19.2589 37 19.6554 36.9567 20.0576 36.871C21.8801 36.4829 23.8223 35.2199 26.1714 32.8972C27.3799 31.702 28.8332 31.0069 30.2394 30.3344C31.8633 29.5583 33.5417 28.7559 34.8133 27.1801C36.4182 25.1919 34.9677 23.5351 33.4315 21.7814L33.4306 21.7795ZM3.31549 16.4184C3.26933 15.3466 3.25521 14.2794 3.34845 13.2858C3.49916 11.6677 3.92018 10.4866 4.63413 9.67561C5.58733 8.59341 7.01335 7.79942 8.9932 7.24938C10.7018 6.77468 12.5017 6.56464 14.0898 6.38004L14.3394 6.35084C15.5403 6.2105 16.8279 5.89874 18.1898 5.56909C19.6884 5.20647 21.2387 4.83067 22.7872 4.65925C23.0632 4.62911 23.3354 4.6131 23.5963 4.6131C24.8264 4.6131 25.8634 4.95406 26.6781 5.62655C27.5174 6.31881 28.1173 7.36052 28.4611 8.72245C28.8643 10.3198 29.1082 11.5546 29.3446 12.7489C29.4972 13.5194 29.6451 14.2681 29.8278 15.0659C29.711 14.6185 29.6008 14.1881 29.4925 13.7633C29.1129 12.2733 28.7541 10.8671 28.1418 8.97393C27.6916 7.58185 26.9588 6.53733 25.9651 5.86955C24.9988 5.2206 23.7997 4.93522 22.4001 5.02281C20.6764 5.13018 18.9471 5.49657 17.2743 5.85165C16.1958 6.08052 15.1767 6.29621 14.2028 6.43466C12.53 6.67296 10.7536 6.96776 9.1034 7.5131C7.15275 8.15639 5.73709 9.02761 4.77542 10.1748C4.01625 11.0799 3.56509 12.3656 3.39555 14.1033C3.32208 14.8521 3.30513 15.632 3.31549 16.4212V16.4184ZM3.22412 16.2131C3.14595 14.9595 3.09226 13.6974 3.19021 12.5492C3.32302 10.9923 3.72615 9.86964 4.42127 9.11709C5.34903 8.11306 6.73172 7.39819 8.64847 6.93197C10.3043 6.52885 12.0591 6.38004 13.6075 6.24817C13.9061 6.22274 14.1887 6.1992 14.4628 6.17377C15.8191 6.04944 17.3092 5.63973 18.8859 5.20553C20.2799 4.82219 21.7219 4.42567 23.1668 4.20245C23.5445 4.14405 23.9128 4.11391 24.2594 4.11391C25.4725 4.11391 26.4794 4.47276 27.2518 5.1801C28.0477 5.9091 28.5911 7.00637 28.869 8.44177C29.1666 9.97889 29.3371 11.208 29.4869 12.2931C29.6394 13.396 29.7798 14.4038 30.0219 15.5255C29.7836 14.545 29.6074 13.6531 29.4256 12.7301C29.1892 11.5349 28.9453 10.2991 28.5412 8.69984C28.156 7.17403 27.4533 6.04662 26.454 5.35058C25.4819 4.67338 24.2452 4.41248 22.7778 4.57448C21.2246 4.7459 19.6714 5.12265 18.17 5.48527C16.81 5.81492 15.5252 6.12573 14.329 6.26513L14.0794 6.29433C10.9844 6.65506 6.74491 7.1486 4.57103 9.61816C3.84483 10.4423 3.41815 11.6394 3.26557 13.2754C3.17797 14.2097 3.18551 15.2072 3.22412 16.2112V16.2131ZM31.1323 24.0362C30.2846 26.1563 28.8473 27.7085 27.3262 29.3511C27.1783 29.5103 27.0295 29.6714 26.8797 29.8343C24.5165 32.4028 22.1119 33.6225 19.3144 33.6715C18.9537 33.6781 18.6419 33.6818 18.3565 33.6846C18.7983 33.6602 19.256 33.6253 19.7308 33.5792C20.4193 33.5123 21.0937 33.3795 21.7351 33.1826C22.3765 32.9867 23.0076 32.7202 23.6104 32.3924C24.2113 32.0656 24.8047 31.6653 25.3736 31.2038C25.9388 30.7451 26.5001 30.2092 27.0408 29.6111C27.7538 28.8227 28.5779 27.8799 29.2778 26.8684C29.9908 25.837 30.5145 24.8227 30.879 23.7678C31.4394 22.1449 31.1757 20.5381 30.7349 18.8738C31.3198 20.638 31.8218 22.3154 31.1333 24.0362H31.1323ZM30.9298 19.1103C30.9402 19.1376 30.9515 19.1658 30.9619 19.1931C31.6428 20.9478 32.2862 22.6055 31.5006 24.3461C30.6614 26.2044 29.3654 27.5211 27.9921 28.915C27.605 29.3078 27.2056 29.7137 26.8072 30.1395C25.578 31.4562 24.3865 32.3952 23.1677 33.0103C21.9781 33.6093 20.7584 33.9013 19.4388 33.9013C19.2645 33.9013 19.0856 33.8956 18.9066 33.8862C18.3848 33.8561 17.8733 33.8316 17.3789 33.808C17.3176 33.8052 17.2564 33.8024 17.1942 33.7995C17.3694 33.8014 17.5446 33.8024 17.7189 33.8024C18.2567 33.8024 18.7917 33.7948 19.3154 33.7854C22.1458 33.7355 24.5758 32.5054 26.9616 29.9125C27.1114 29.7495 27.2621 29.5866 27.4081 29.4293C28.1899 28.5845 28.9293 27.7867 29.5848 26.9268C30.3214 25.9614 30.846 25.0562 31.2369 24.0795C31.9047 22.4105 31.4808 20.7971 30.9298 19.1112V19.1103ZM30.7641 23.7282C29.9465 26.097 28.4319 27.8931 26.9513 29.5301C25.8643 30.7319 24.7529 31.6333 23.5529 32.286C22.3483 32.9415 21.0946 33.3248 19.7185 33.4586C19.6573 33.4642 19.597 33.4699 19.5367 33.4755C19.7392 33.4454 19.9417 33.4124 20.1452 33.3757C20.8196 33.2542 21.4817 33.0734 22.1137 32.8388C22.7382 32.6071 23.3504 32.3161 23.9316 31.9752C24.5071 31.637 25.0685 31.2405 25.5997 30.7959C26.1262 30.3561 26.6376 29.8569 27.1189 29.3135C27.9459 28.381 28.6128 27.4834 29.1591 26.5689C29.453 26.0763 29.7148 25.5714 29.9361 25.0685C30.1678 24.5429 30.3647 24.0013 30.5201 23.4579C30.8046 22.4652 30.8903 21.4009 30.7801 20.2028C30.7349 19.7121 30.6586 19.2016 30.5446 18.6365C31.0221 20.378 31.3424 22.0508 30.7641 23.7273V23.7282ZM30.3948 23.423C30.0897 24.4874 29.6489 25.4951 29.047 26.5029C28.5054 27.41 27.8433 28.3019 27.0219 29.2277C25.2521 31.2226 23.1705 32.5214 20.8262 33.0979C27.2668 31.2207 31.2604 24.9055 30.3619 18.3991C30.7198 20.0531 30.8724 21.7597 30.3948 23.423ZM29.7628 12.0821C29.6715 10.9848 29.5679 9.74154 29.3409 8.15827C29.0781 6.32352 28.4122 5.01433 27.362 4.26838C26.3871 3.57517 25.0986 3.37926 23.5322 3.68537C22.1467 3.95568 20.7715 4.38046 19.4416 4.79017C17.6953 5.32892 16.0461 5.83752 14.5814 5.93548C14.184 5.96185 13.7573 5.98351 13.3052 6.00517C11.768 6.08147 10.0265 6.16812 8.38286 6.50625C6.4727 6.899 5.09189 7.55642 4.16319 8.5143C2.61284 10.1126 2.85208 13.2133 3.08755 16.2159C3.06777 15.9946 3.04799 15.7714 3.02727 15.5462C2.756 12.5728 2.47532 9.49854 3.99742 8.00098C4.92047 7.09303 6.29469 6.49683 8.19919 6.17754C9.84373 5.90157 11.5862 5.87896 13.1234 5.85824C13.6914 5.85071 14.2282 5.84317 14.7105 5.82339C16.2712 5.75841 18.0617 5.14714 19.9578 4.50008C21.2463 4.06023 22.5781 3.60531 23.9222 3.29261C24.4769 3.16357 25.0035 3.09764 25.4867 3.09764C26.6838 3.09764 27.6473 3.49511 28.3519 4.2778C29.0781 5.08497 29.5264 6.30092 29.6856 7.89078C29.8533 9.5673 29.8947 10.8577 29.9314 11.9954C29.987 13.7228 30.0303 15.0527 30.4655 16.8093C30.0106 15.0621 29.8985 13.7171 29.7619 12.0811L29.7628 12.0821ZM4.20934 8.55951C5.12957 7.61105 6.49908 6.96022 8.39604 6.56935C10.0349 6.23216 11.7746 6.14551 13.3089 6.06922C13.7611 6.04662 14.1887 6.0259 14.5871 5.99858C16.0583 5.90063 17.7113 5.39108 19.4614 4.85139C20.7894 4.44168 22.1637 4.01784 23.5454 3.74753C24.0154 3.65523 24.4666 3.60907 24.8867 3.60907C26.0895 3.60907 27.0728 3.98676 27.8084 4.73083C28.5666 5.49845 29.0611 6.65412 29.2778 8.16581C29.5038 9.7472 29.6074 10.9895 29.6988 12.0858C29.8146 13.4807 29.9135 14.6647 30.2215 16.0652C29.8975 14.7146 29.7374 13.5617 29.5603 12.2817C29.4096 11.1967 29.2391 9.96571 28.9415 8.4267C28.6203 6.76714 27.9478 5.55779 26.9428 4.83161C25.9651 4.12616 24.6917 3.88975 23.1555 4.1271C21.7059 4.35126 20.262 4.74873 18.8661 5.13207C17.2922 5.56438 15.8059 5.97315 14.4562 6.09748C14.1821 6.12291 13.9005 6.14645 13.6019 6.17188C12.0506 6.30374 10.293 6.45256 8.63152 6.85756C6.70064 7.32755 5.3057 8.04902 4.36758 9.06434C3.66022 9.82914 3.25144 10.966 3.11675 12.5408C3.02162 13.6588 3.06965 14.8832 3.14406 16.1019C2.91236 13.1473 2.69855 10.1164 4.21028 8.55762L4.20934 8.55951ZM26.5416 10.0599C25.8201 9.19903 24.9667 8.48322 24.0051 7.93128C23.0566 7.38783 22.0082 7.00732 20.8893 6.80199C19.9945 6.63434 19.0564 6.54957 18.0919 6.54957C17.8357 6.54957 17.5767 6.55522 17.3167 6.56747C16.1327 6.62209 14.9168 6.80011 13.7008 7.09679C12.8729 7.29929 12.0638 7.5649 11.2952 7.8889C10.5172 8.21667 9.77592 8.60472 9.09116 9.04362C8.39134 9.49195 7.74331 9.99773 7.16499 10.5468C6.56972 11.112 6.04132 11.7289 5.59392 12.3825C5.0966 13.1153 4.685 13.9423 4.36946 14.8398C4.07088 15.6932 3.85613 16.6181 3.73274 17.5901C3.72238 17.672 3.71296 17.7549 3.70449 17.8369C3.71673 17.6023 3.73369 17.3716 3.75441 17.1465C3.95503 14.9858 4.53806 13.2208 5.48749 11.9003C6.37192 10.6702 7.60391 9.61534 9.14956 8.76389C10.5238 8.00663 12.1062 7.43021 13.8515 7.04876C15.9265 6.59572 17.7405 6.37533 19.3973 6.37533C20.0378 6.37533 20.6623 6.40923 21.2529 6.47611C23.6387 6.74736 25.5705 7.91527 26.8401 9.85363C27.7001 11.1666 28.3735 12.3985 28.9377 13.719C28.853 13.5448 28.7663 13.3724 28.6759 13.2029C28.0976 12.1122 27.3996 11.0837 26.5416 10.059V10.0599ZM28.6523 13.445C26.2571 9.34125 21.8274 6.79634 17.0746 6.79634C16.3578 6.79634 15.6335 6.85473 14.9073 6.97341C15.9858 6.77844 17.053 6.67955 18.0928 6.67955C19.0469 6.67955 19.9794 6.76337 20.8638 6.92914C23.0952 7.33979 25.0232 8.45119 26.4408 10.1428C27.3271 11.2014 28.0561 12.2865 28.6523 13.444V13.445ZM13.5369 7.27292C8.26041 8.71115 4.57856 13.1087 3.79962 18.1919C3.81657 17.9951 3.83729 17.7992 3.86178 17.6061C4.11609 15.6103 4.73492 13.8773 5.7013 12.4551C6.58008 11.1713 7.74426 10.0608 9.16086 9.15288C10.471 8.31368 11.9423 7.68169 13.5369 7.27198V7.27292ZM3.69601 25.5714C3.88627 26.6423 4.20275 27.6209 4.63602 28.4818C5.07588 29.3549 5.64949 30.1338 6.34084 30.7959C7.0416 31.4666 7.88554 32.0401 8.85004 32.4988C10.0227 33.0555 11.2076 33.3588 12.4565 33.5556C11.0088 33.3569 9.66948 33.0705 8.33011 32.4263C7.35808 31.9582 6.52074 31.3752 5.84164 30.6942C5.17195 30.0227 4.63131 29.2315 4.23571 28.3424C3.84577 27.4674 3.58298 26.4662 3.45206 25.3661C3.3249 24.2877 3.3202 23.0755 3.43982 21.7625C3.46619 21.4753 3.48032 21.1758 3.48691 20.8649C3.49633 21.2869 3.49633 21.6938 3.4822 22.0809C3.43605 23.3439 3.50763 24.5184 3.69507 25.5705L3.69601 25.5714ZM8.89054 32.415C7.93546 31.9601 7.09906 31.3931 6.40583 30.7291C5.72107 30.0735 5.15406 29.304 4.7189 28.4403C4.29034 27.588 3.97669 26.6178 3.78737 25.5554C3.60088 24.509 3.53024 23.342 3.57639 22.0847C3.5811 21.9453 3.58487 21.804 3.58581 21.6599C3.59617 21.9142 3.6037 22.1638 3.60841 22.4077C3.63196 23.6152 3.76948 24.7454 4.01531 25.7673C4.26397 26.7996 4.63037 27.7481 5.10508 28.5863C5.5845 29.434 6.18731 30.1913 6.89561 30.8383C7.61239 31.492 8.45633 32.0505 9.40481 32.496C10.4626 32.9924 11.5429 33.2966 12.6685 33.4934C11.3536 33.2994 10.1131 32.9961 8.88865 32.415H8.89054ZM26.9409 9.7877C25.6515 7.81826 23.6886 6.63245 21.266 6.35649C19.1364 6.11443 16.7026 6.30186 13.8242 6.93103C12.9812 7.11469 12.1627 7.34921 11.3913 7.62706C10.5709 7.92187 9.79664 8.26941 9.09022 8.6584C7.52856 9.51832 6.28338 10.5855 5.38765 11.8297C4.88279 12.5313 4.47684 13.3621 4.18108 14.2973C3.91264 15.1441 3.72803 16.0991 3.63196 17.1352C3.62443 17.2162 3.61783 17.2972 3.61124 17.3801C3.61972 17.0994 3.63196 16.8206 3.65174 16.5437C3.80904 14.2766 4.33932 12.5756 5.27273 11.3446C6.1713 10.1588 7.47299 9.16041 9.14108 8.37584C10.5059 7.73443 12.1306 7.2296 13.972 6.87451C16.0885 6.46575 18.4865 6.00329 20.8271 6.00329C21.1021 6.00329 21.3753 6.00988 21.6381 6.02307C24.168 6.1474 26.1055 7.37276 27.2405 9.5673C28.0966 11.2231 28.6938 12.6114 29.2043 14.0477C28.6062 12.5775 27.8847 11.2306 26.94 9.7877H26.9409ZM29.0197 13.2236C28.5534 12.0058 28.0203 10.8275 27.3412 9.5155C26.1865 7.28328 24.217 6.0372 21.6447 5.91099C19.0375 5.78289 16.3352 6.30469 13.9513 6.76432C12.1014 7.12128 10.4673 7.62895 9.09399 8.27412C7.40894 9.06623 6.09312 10.0759 5.1842 11.2768C4.2376 12.5266 3.69978 14.2465 3.5406 16.5361C3.5293 16.7057 3.51988 16.8752 3.51234 17.0457C3.51422 16.3911 3.53777 15.7431 3.59711 15.1092C3.77513 13.2133 4.25361 11.8005 5.05987 10.7889C5.54306 10.1823 6.15435 9.63135 6.87772 9.14817C7.52762 8.71491 8.28773 8.32404 9.13637 7.9878C10.4974 7.44811 12.0732 7.0384 14.0945 6.70027C14.7199 6.59572 15.3519 6.47516 16.0225 6.34707C17.9845 5.97315 20.0143 5.58699 22.0243 5.56815C22.0497 5.56815 22.0751 5.56815 22.1006 5.56815C24.7341 5.56815 26.6518 6.85285 27.6473 9.28286C28.4338 11.2014 28.9264 12.683 29.4162 14.3133C29.2853 13.9347 29.1544 13.5749 29.0206 13.2246L29.0197 13.2236ZM27.7415 9.2433C27.2254 7.98403 26.4634 7.02239 25.4753 6.38286C24.5335 5.77348 23.3985 5.46454 22.0996 5.46454C22.0742 5.46454 22.0478 5.46454 22.0224 5.46454C20.003 5.48338 17.9694 5.87049 16.0028 6.24535C15.3331 6.3725 14.7011 6.49306 14.0775 6.59761C12.0487 6.93762 10.4673 7.34827 9.0987 7.89173C8.24346 8.2308 7.47676 8.62544 6.8212 9.06246C6.08935 9.55035 5.46959 10.1098 4.98075 10.7239C4.1613 11.7515 3.67623 13.1822 3.49633 15.0989C3.44735 15.6178 3.42286 16.1472 3.41438 16.6803C3.39649 15.8043 3.40873 14.9369 3.48974 14.109C3.65739 12.3901 4.10197 11.1223 4.84794 10.2313C5.79831 9.09731 7.19984 8.23645 9.13354 7.59881C10.7771 7.05629 12.5488 6.76149 14.2169 6.52414C15.1946 6.38475 16.2147 6.16906 17.295 5.93924C18.9641 5.5851 20.6905 5.21966 22.4067 5.11229C22.5677 5.10193 22.7279 5.09722 22.8842 5.09722C24.1388 5.09722 25.2144 5.42122 26.081 6.06074C26.972 6.71911 27.636 7.70806 28.0533 8.99936C28.6646 10.8887 29.0225 12.2949 29.4021 13.7831C29.4756 14.0703 29.549 14.3604 29.6253 14.6562C29.096 12.8714 28.5892 11.3116 27.7415 9.2433ZM3.40308 20.0154C3.41533 20.6323 3.40685 21.2172 3.35787 21.755C3.23731 23.0736 3.24202 24.2914 3.37012 25.3755C3.50104 26.4841 3.76665 27.4938 4.16036 28.3763C4.56067 29.2748 5.10602 30.0745 5.78324 30.7526C6.46894 31.4402 7.31381 32.0288 8.29432 32.5007C9.74577 33.1986 11.1925 33.4793 12.7758 33.6809C10.9693 33.4529 9.38503 33.2222 7.77063 32.4376C3.91265 30.5567 2.49416 27.0615 3.30513 21.4385C3.36917 20.9977 3.39649 20.5193 3.40214 20.0144L3.40308 20.0154ZM9.45002 32.4037C8.51096 31.962 7.6755 31.41 6.96626 30.763C6.26549 30.1235 5.67021 29.3747 5.1955 28.5364C4.26491 26.8919 3.76665 24.8453 3.71296 22.4529C3.71296 22.4548 3.71296 22.4558 3.71296 22.4576C3.7205 22.5499 3.72709 22.6422 3.73463 22.7336C3.91641 25.0496 4.53429 27.0549 5.57131 28.6928C6.62058 30.3495 8.09747 31.6286 9.96147 32.4932C10.6443 32.8097 11.3508 33.0583 12.1212 33.2533C12.3821 33.3192 12.6496 33.3795 12.9237 33.4322C11.72 33.2382 10.5709 32.9293 9.45002 32.4028V32.4037ZM10.0086 32.3915C8.16434 31.5363 6.70347 30.2713 5.6655 28.6325C4.74433 27.1773 4.15659 25.4283 3.91547 23.4259C4.24984 25.4772 4.96097 27.2837 6.0319 28.8001C6.59327 29.5951 7.25636 30.3099 8.00234 30.924C8.75302 31.5428 9.59884 32.0693 10.5172 32.4894C11.3696 32.8784 12.2682 33.1713 13.2345 33.3748C12.0468 33.1666 10.9872 32.8436 10.0086 32.3905V32.3915ZM10.568 32.3802C8.74454 31.5457 7.25165 30.3184 6.1308 28.7314C5.25013 27.4844 4.6153 26.0386 4.23571 24.4205C4.42503 25.0958 4.66239 25.7476 4.94496 26.3673C5.36221 27.2828 5.8812 28.1399 6.48872 28.9132C7.09153 29.6798 7.7857 30.3721 8.55334 30.9711C9.32098 31.5702 10.1696 32.0806 11.0738 32.4885C11.7511 32.7936 12.465 33.0432 13.1978 33.2316C13.3061 33.2589 13.4154 33.2853 13.5246 33.3107C12.4612 33.1073 11.4807 32.7983 10.568 32.382V32.3802ZM11.1275 32.3679C9.32192 31.5541 7.79512 30.3636 6.59138 28.8312C5.78418 27.8027 5.14652 26.6508 4.685 25.3906C6.35497 29.401 9.82866 32.2568 13.875 33.2514C12.9143 33.0545 11.996 32.7588 11.1275 32.3679ZM12.8116 32.7965C11.46 32.3378 10.196 31.6691 9.05631 30.8073C7.90438 29.937 6.90974 28.8943 6.09971 27.7076C5.26143 26.4803 4.6379 25.1231 4.24702 23.6736C3.78078 21.9424 3.66681 20.1727 3.90888 18.4123C4.14341 16.7113 4.69724 15.0913 5.55719 13.5966C6.41713 12.1019 7.53892 10.8077 8.89148 9.75002C10.2921 8.65558 11.8792 7.86347 13.6103 7.39725C14.7453 7.09114 15.9104 6.93573 17.0756 6.93573C18.5204 6.93573 19.9493 7.17214 21.3225 7.63836C22.6742 8.09705 23.9382 8.76672 25.0779 9.62758C26.2298 10.4979 27.2244 11.5405 28.0345 12.7272C28.8727 13.9545 29.4963 15.3117 29.8862 16.7612C30.3525 18.4924 30.4664 20.2622 30.2244 22.0225C29.9898 23.7235 29.436 25.3435 28.5761 26.8382C27.7161 28.333 26.5943 29.6271 25.2418 30.6848C23.8412 31.7793 22.2541 32.5714 20.5229 33.0376C19.3879 33.3437 18.2218 33.4991 17.0577 33.4991C15.6128 33.4991 14.184 33.2627 12.8107 32.7974L12.8116 32.7965ZM17.3732 33.9088C17.8677 33.9324 18.3791 33.9578 18.901 33.987C19.0818 33.9973 19.2617 34.003 19.4388 34.003C20.683 34.003 21.8415 33.7459 22.9643 33.2222C24.281 32.6081 25.5629 31.6229 26.8825 30.2092C27.28 29.7834 27.6794 29.3784 28.0655 28.9866C29.4454 27.5861 30.7481 26.2637 31.5948 24.3885C32.369 22.6733 31.7917 21.0524 31.1314 19.3467C31.171 19.4361 31.2105 19.5247 31.2501 19.6132C32.0121 21.3199 32.7307 22.9323 31.8689 24.6569C31.0118 26.372 29.761 27.5428 28.4376 28.7822C27.88 29.305 27.3026 29.8456 26.7365 30.4437C25.4951 31.7566 24.3159 32.69 23.1319 33.2985C21.9885 33.8862 20.8328 34.1716 19.5998 34.1716C19.2429 34.1716 18.8727 34.1471 18.4978 34.0991C17.6143 33.9851 16.7808 33.9079 15.9726 33.8372C16.4304 33.8636 16.8966 33.8862 17.3732 33.9088ZM31.024 18.2108C30.2215 15.6922 30.3138 14.1212 30.4401 11.9464C30.5135 10.6938 30.5955 9.27344 30.5408 7.34356C30.4683 5.03506 29.8608 3.45461 28.7352 2.64461C27.7462 1.9335 26.3767 1.83366 24.6644 2.34886C23.3401 2.74444 22.0365 3.27095 20.7763 3.78049C18.6692 4.63194 16.6771 5.43723 15.0081 5.43723C14.9921 5.43723 14.9761 5.43723 14.961 5.43723C14.3874 5.43158 13.6989 5.39202 12.9699 5.34964C9.90401 5.17163 5.70412 4.92862 3.55096 6.85662C2.01568 8.23174 2.37548 11.3079 2.72304 14.2842C2.98677 16.539 3.23543 18.6685 2.73057 20.1237C1.62385 23.3157 1.2876 25.8352 1.70391 27.8281C2.13624 29.8993 3.3833 31.4336 5.5148 32.5167C6.9267 33.2344 8.30751 33.4341 9.76932 33.6451C11.5212 33.8984 13.5067 34.1857 15.9924 35.4111C17.1377 35.9753 18.1908 36.2531 19.2212 36.2531C19.7157 36.2531 20.2055 36.1891 20.6971 36.0619C22.3888 35.6239 24.2311 34.3929 26.3287 32.2973C27.4185 31.2028 28.6863 30.4927 29.9126 29.807C31.4733 28.9339 32.9474 28.1088 34.0974 26.5576C35.515 24.6456 34.25 23.018 32.9116 21.2954C32.7985 21.1503 32.6855 21.0043 32.5725 20.8574C32.7609 21.0948 32.9549 21.3283 33.147 21.561C34.5768 23.2893 35.9266 24.9206 34.429 26.8486C33.2243 28.4064 31.6174 29.2362 30.0624 30.0387C28.7437 30.7197 27.3798 31.4242 26.226 32.5732C23.9928 34.7923 22.1316 36.0195 20.3684 36.4339C18.8124 36.8003 17.3384 36.5385 15.5911 35.5863C12.951 34.1471 10.8939 33.8504 9.07892 33.5886C7.67079 33.3851 6.34178 33.1939 4.97227 32.4913C2.8144 31.3837 1.58994 29.8183 1.23014 27.7038C0.881641 25.659 1.34128 23.0764 2.63356 19.8082C3.22318 18.3172 2.91895 15.9588 2.62414 13.6785C2.23985 10.707 1.84331 7.6346 3.36541 6.32823C4.68782 5.20082 6.77317 4.89754 8.90561 4.89754C10.3043 4.89754 11.7247 5.02846 12.9623 5.14149C13.746 5.21307 14.4863 5.28182 15.0844 5.30254C15.139 5.30443 15.1937 5.30537 15.2483 5.30537C16.9541 5.30537 19.0055 4.41625 21.1737 3.47627C22.4293 2.93188 23.7281 2.36864 25.0496 1.93444C26.8034 1.3552 28.1936 1.42301 29.1817 2.136C30.3214 2.95825 30.9016 4.61969 30.9063 7.07231C30.9063 9.15759 30.7594 10.6552 30.6284 11.9766C30.4024 14.2644 30.2526 15.7761 31.0815 18.3558C31.1248 18.4896 31.1738 18.6214 31.2284 18.7514C31.1493 18.5734 31.0787 18.3935 31.0212 18.2108H31.024ZM32.8824 21.318C33.5605 22.1901 34.201 23.0143 34.5053 23.8685C34.6673 24.3253 34.7191 24.7492 34.6635 25.1674C34.6013 25.6336 34.4064 26.081 34.0682 26.5368C32.9229 28.0815 31.4516 28.9047 29.8947 29.7769C28.6665 30.4644 27.3968 31.1746 26.3033 32.2728C24.9017 33.6724 23.6443 34.667 22.4585 35.3112C21.3348 35.9225 20.2723 36.2192 19.2108 36.2192C18.1493 36.2192 17.1707 35.9526 16.0084 35.3791C13.5171 34.1509 11.5288 33.8636 9.77403 33.6093C8.31504 33.3983 6.938 33.1996 5.53081 32.4847C3.40968 31.4063 2.16921 29.8805 1.7397 27.8206C1.32527 25.8342 1.66059 23.3204 2.76448 20.135C3.27216 18.6723 3.02256 16.538 2.75789 14.2794C2.41127 11.3126 2.05241 8.24587 3.57356 6.88299C4.25738 6.27078 5.17101 5.84506 6.36721 5.58134C7.327 5.36942 8.46386 5.26675 9.84279 5.26675C10.926 5.26675 12.0101 5.32986 12.967 5.38543C13.6961 5.42781 14.3855 5.46737 14.9601 5.47302C14.9761 5.47302 14.9921 5.47302 15.0081 5.47302C16.6837 5.47302 18.6787 4.66679 20.7894 3.81346C22.0487 3.30391 23.3514 2.77835 24.6747 2.38371C25.3849 2.16991 26.0433 2.06159 26.6339 2.06159C27.8272 2.06159 28.7625 2.5005 29.4134 3.36513C30.0821 4.25425 30.4495 5.59358 30.505 7.3445C30.5597 9.27344 30.4768 10.6919 30.4043 11.9446C30.2771 14.1231 30.1857 15.6969 30.9901 18.2221C31.0203 18.3172 31.0542 18.4114 31.09 18.5046C31.0316 18.3634 30.9798 18.2211 30.9336 18.0761C30.1622 15.632 30.1857 14.0948 30.2168 11.9662C30.2347 10.771 30.2545 9.41754 30.1415 7.61482C30.0068 5.46549 29.3795 3.97452 28.2775 3.18429C27.2932 2.4779 25.9501 2.34604 24.2876 2.79436C22.953 3.1485 21.6362 3.6411 20.3628 4.11674C18.3518 4.8674 16.453 5.57757 14.8348 5.603C14.2979 5.61148 13.6763 5.59735 13.0188 5.58228C10.0039 5.51352 5.8746 5.42028 3.75535 7.40949C2.22007 8.85054 2.54031 11.9276 2.85019 14.9039C3.07154 17.025 3.27969 19.0283 2.85679 20.4505C1.93373 23.554 1.72087 26.0047 2.20594 27.944C2.71079 29.9643 3.97575 31.459 6.07146 32.5148C7.53327 33.2495 8.97531 33.4567 10.5012 33.6752C12.1815 33.9163 14.086 34.1895 16.4087 35.2086C17.4542 35.6673 18.4215 35.8933 19.3653 35.8933C19.921 35.8933 20.4683 35.8151 21.0183 35.6588C22.6572 35.1944 24.4195 33.9973 26.4078 31.9996C27.4335 30.9608 28.6043 30.2497 29.7365 29.5621C31.2331 28.6532 32.6469 27.7942 33.7395 26.2477C35.0647 24.3715 33.8921 22.7562 32.6507 21.0458C32.5245 20.8725 32.3982 20.6973 32.273 20.5212C32.4717 20.7905 32.678 21.0552 32.8824 21.318ZM32.6139 21.0722C33.2422 21.9377 33.8356 22.7543 34.1153 23.5982C34.429 24.5439 34.298 25.3774 33.7028 26.2204C32.6158 27.7594 31.2058 28.6155 29.7129 29.5216C28.5779 30.2111 27.4053 30.9231 26.3758 31.9657C25.0053 33.3427 23.7696 34.3195 22.5979 34.9533C21.4855 35.5542 20.4259 35.8472 19.3597 35.8472C18.4328 35.8472 17.474 35.6239 16.4275 35.1652C14.0992 34.1443 12.1909 33.8702 10.5078 33.6291C8.91879 33.4011 7.54646 33.2043 6.09218 32.4725C4.00872 31.4232 2.75129 29.9379 2.25021 27.9317C1.76796 26.0009 1.98083 23.5577 2.90105 20.4628C3.32679 19.0321 3.11769 17.025 2.89634 14.8992C2.5874 11.9342 2.2681 8.8675 3.78737 7.44246C4.56349 6.7144 5.64572 6.21804 7.09624 5.92417C8.53168 5.63408 10.1009 5.60017 11.1567 5.60017C11.801 5.60017 12.4207 5.6143 13.0198 5.62749C13.5425 5.63973 14.0361 5.65009 14.4844 5.65009C14.6106 5.65009 14.7265 5.65009 14.8376 5.64727C16.4633 5.62089 18.3669 4.91073 20.3807 4.15818C21.6532 3.68254 22.968 3.19183 24.3008 2.83769C24.9366 2.66627 25.5319 2.57962 26.0725 2.57962C27.2659 2.57962 28.2134 2.99781 28.8897 3.82194C29.5858 4.67055 29.9917 5.94772 30.0963 7.6167C30.2093 9.4166 30.1895 10.7701 30.1716 11.9643C30.1405 14.0713 30.1179 15.6009 30.863 18.0007C30.8564 17.981 30.8488 17.9602 30.8432 17.9405C30.1047 15.5754 30.0558 14.0732 29.9889 11.9935C29.9522 10.8548 29.9107 9.56353 29.7421 7.88513C29.5424 5.89498 28.8963 4.49631 27.8216 3.72681C26.843 3.02606 25.5272 2.86218 23.9109 3.23798C22.564 3.55162 21.2302 4.00654 19.9408 4.44733C18.0485 5.09345 16.2618 5.70378 14.7086 5.76783C14.2282 5.7876 13.6914 5.79514 13.1234 5.80267C11.5843 5.82339 9.83902 5.84694 8.19071 6.12291C6.27491 6.44408 4.89033 7.04499 3.9588 7.96142C2.41786 9.47688 2.69949 12.5653 2.9717 15.551C3.15254 17.5279 3.32302 19.3966 2.98111 20.7755C2.23702 23.7838 2.14566 26.1648 2.70043 28.0542C3.27969 30.0246 4.56349 31.4826 6.62623 32.5101C8.15115 33.2683 9.60166 33.4727 11.282 33.7082C12.8766 33.9324 14.6832 34.1857 16.8231 35.0033C17.7641 35.363 18.6419 35.542 19.4953 35.542C20.1188 35.542 20.7292 35.4469 21.3433 35.2566C22.9322 34.7659 24.6145 33.6027 26.486 31.6992C27.442 30.7272 28.5082 30.0227 29.5387 29.3417C30.9807 28.3885 32.3417 27.4891 33.3816 25.9359C34.6145 24.0927 33.5342 22.4868 32.3898 20.7858C32.3003 20.6521 32.2099 20.5183 32.1204 20.3837C32.2824 20.6154 32.4482 20.8442 32.613 21.0703L32.6139 21.0722ZM32.3446 20.8188C32.9229 21.6787 33.4692 22.4906 33.7254 23.326C34.0126 24.2613 33.8883 25.0817 33.3364 25.9077C32.3031 27.4514 30.9458 28.348 29.5095 29.2984C28.4762 29.9812 27.4081 30.6876 26.4474 31.6634C25.1127 33.0206 23.8986 33.9832 22.7373 34.6077C21.6343 35.2001 20.5728 35.4883 19.4934 35.4883C18.6523 35.4883 17.7858 35.3131 16.8439 34.9533C14.6973 34.133 12.887 33.8787 11.2905 33.6545C9.61579 33.419 8.16905 33.2165 6.65166 32.4612C4.60399 31.4402 3.32867 29.9944 2.75412 28.0391C2.20217 26.1592 2.29354 23.7875 3.0348 20.7896C3.2326 19.9881 3.25992 19.0255 3.21188 17.9734C3.27687 19.1357 3.28158 20.2094 3.10639 21.1032C2.5356 24.0108 2.56386 26.3212 3.1921 28.1644C3.84671 30.0867 5.15217 31.5071 7.18195 32.5083C8.78975 33.2994 10.3392 33.5085 12.1335 33.7496C13.6207 33.9502 15.3058 34.1763 17.2395 34.8017C18.0655 35.0682 18.8407 35.202 19.5932 35.202C20.2959 35.202 20.9797 35.0861 21.6673 34.8544C23.2026 34.3374 24.8047 33.209 26.5661 31.4034C27.4448 30.5021 28.4046 29.8117 29.3314 29.1439C30.7226 28.1418 32.0375 27.1952 33.0246 25.6289C34.1671 23.8158 33.1772 22.2146 32.1298 20.5193C32.0648 20.4147 31.9998 20.3092 31.9358 20.2038C32.0705 20.411 32.208 20.6154 32.3455 20.8188H32.3446ZM32.0752 20.5522C32.6045 21.4084 33.1037 22.2175 33.3373 23.0463C33.5982 23.9731 33.4814 24.7831 32.9709 25.5931C31.9904 27.1491 30.6812 28.0919 29.2947 29.0902C28.3651 29.7599 27.4034 30.4522 26.5208 31.3573C25.2144 32.6966 24.0173 33.6479 22.8607 34.2639C21.7605 34.8507 20.6915 35.1351 19.5923 35.1351C18.8473 35.1351 18.0843 35.0061 17.2602 34.7395C15.3208 34.1132 13.633 33.8862 12.1429 33.6856C10.3542 33.4445 8.81048 33.2373 7.21115 32.4499C5.19738 31.4571 3.90323 30.0481 3.25332 28.1437C2.62885 26.3108 2.60153 24.0117 3.16949 21.1155C3.28723 20.5146 3.32491 19.8345 3.31643 19.1027C3.34374 19.9476 3.3315 20.735 3.23072 21.4291C2.4141 27.0878 3.84577 30.6076 7.73672 32.5045C9.45661 33.3409 11.1379 33.5518 13.0848 33.7948C14.4986 33.9719 15.9604 34.1546 17.6529 34.5973C18.3509 34.78 19.0121 34.8714 19.6545 34.8714C20.4504 34.8714 21.2171 34.7311 21.9894 34.4485C23.4701 33.9069 24.9922 32.8125 26.6433 31.1039C27.4354 30.2845 28.2803 29.6205 29.0969 28.9782C30.4485 27.9157 31.7257 26.9117 32.6648 25.3171C33.7178 23.5295 32.8174 21.9283 31.8651 20.233C31.8237 20.1586 31.7822 20.0841 31.7399 20.0097C31.8501 20.1915 31.9612 20.3724 32.0723 20.5522H32.0752ZM31.803 20.2697C32.2833 21.1249 32.7383 21.934 32.9483 22.759C33.1828 23.6821 33.0736 24.4826 32.6036 25.2804C31.6711 26.8637 30.3996 27.863 29.0536 28.9207C28.2351 29.564 27.3883 30.2299 26.5924 31.0531C25.3115 32.3783 24.1266 33.3201 22.9699 33.9305C21.866 34.5135 20.781 34.797 19.6516 34.797C19.0149 34.797 18.3678 34.7084 17.6737 34.5276C15.9764 34.084 14.4458 33.8928 13.0951 33.7242C13.0226 33.7148 12.9501 33.7063 12.8785 33.6969C13.3052 33.7506 13.7422 33.7986 14.1924 33.8476C15.4094 33.9813 16.6677 34.1198 18.0702 34.3957C18.6127 34.5022 19.1402 34.5559 19.6545 34.5559C20.5728 34.5559 21.4535 34.3854 22.3153 34.0425C23.7413 33.4755 25.1834 32.4178 26.7243 30.8063C27.4147 30.0848 28.1334 29.467 28.8294 28.8698C30.1575 27.7302 31.4121 26.6527 32.3097 25.0082C33.2751 23.2384 32.4632 21.6288 31.6033 19.924C31.5826 19.8826 31.5618 19.8421 31.5411 19.8006C31.6278 19.9579 31.7163 20.1143 31.803 20.2697ZM31.5289 19.9608C32.3785 21.6448 33.181 23.2366 32.2362 24.9668C31.3461 26.5981 30.0972 27.6699 28.7757 28.8048C28.0787 29.4039 27.3572 30.0227 26.665 30.747C25.4056 32.0637 24.2273 32.998 23.0632 33.6055C21.9461 34.1885 20.8328 34.4711 19.662 34.4711C19.1506 34.4711 18.6363 34.4184 18.0881 34.311C16.8712 34.0717 15.7645 33.9361 14.6982 33.8165C14.9789 33.8419 15.2634 33.8664 15.5535 33.8919C16.4888 33.9729 17.4552 34.0567 18.4875 34.1895C18.8652 34.2385 19.2344 34.262 19.597 34.262C20.6585 34.262 21.6626 34.0529 22.6421 33.631C24.0135 33.0404 25.3755 32.0175 26.8053 30.5059C27.3695 29.9097 27.945 29.37 28.5026 28.8482C29.8325 27.6021 31.089 26.4257 31.9537 24.6964C32.8353 22.9333 32.1072 21.302 31.3367 19.5746C31.4008 19.7036 31.4658 19.8327 31.5308 19.9598L31.5289 19.9608ZM34.785 27.1566C33.5182 28.7257 31.8435 29.5263 30.2234 30.3015C28.8153 30.9749 27.3582 31.6709 26.146 32.8709C23.8016 35.1897 21.8651 36.449 20.0501 36.8352C18.4649 37.1724 16.9625 36.8493 15.1795 35.7878C12.401 34.1339 10.2836 33.8316 8.41582 33.565C7.04914 33.3701 5.75781 33.1855 4.42032 32.4922C2.22666 31.3564 1.01916 29.7505 0.728112 27.5833C0.445545 25.4772 1.02952 22.8278 2.51299 19.4842C3.18645 17.9678 2.83512 15.4888 2.4951 13.0908C2.28412 11.5989 2.0656 10.0552 2.09574 8.76107C2.12965 7.31342 2.48003 6.33765 3.16478 5.77819C4.36946 4.79394 6.19673 4.50008 8.12666 4.50008C9.78062 4.50008 11.5099 4.71671 12.9878 4.90131C13.8524 5.00963 14.5993 5.10287 15.2125 5.1396C15.2992 5.14525 15.3868 5.14714 15.4762 5.14714C17.2121 5.14714 19.3191 4.17419 21.543 3.14756C22.8013 2.56643 24.103 1.96552 25.4311 1.49083C27.2367 0.845649 28.6571 0.883324 29.6517 1.60197C30.814 2.44305 31.3706 4.19115 31.3066 6.79916C31.251 9.04739 31.0259 10.6938 30.846 12.0161C30.5295 14.3303 30.3214 15.8589 31.1738 18.4915C31.2002 18.5725 31.2284 18.6525 31.2595 18.7316C31.2058 18.6045 31.1578 18.4754 31.1163 18.3455C30.2894 15.7723 30.4391 14.2634 30.6642 11.9794C30.7951 10.657 30.943 9.15947 30.9421 7.07136C30.9374 4.60745 30.3525 2.93753 29.2043 2.10869C28.2078 1.39005 26.8081 1.32035 25.043 1.90336C23.7197 2.3385 22.4208 2.90174 21.1643 3.44613C18.9998 4.38423 16.9512 5.2724 15.2521 5.2724C15.1974 5.2724 15.1428 5.27241 15.0891 5.26958C14.492 5.24886 13.7526 5.18104 12.9689 5.10852C9.83808 4.82031 5.54965 4.42661 3.34845 6.30186C1.81317 7.61953 2.21065 10.7013 2.59588 13.6814C2.88975 15.9578 3.19398 18.3116 2.60718 19.795C1.31208 23.0689 0.852442 25.6571 1.20188 27.7076C1.56357 29.8324 2.79368 31.4053 4.96097 32.5177C6.33425 33.2222 7.66702 33.4143 9.07703 33.6178C10.8892 33.8796 12.9435 34.1754 15.578 35.6117C16.8279 36.2927 17.9383 36.6223 19.0404 36.6223C19.4849 36.6223 19.9286 36.5686 20.3778 36.4631C22.1467 36.0468 24.0135 34.8177 26.2505 32.594C27.4006 31.4477 28.7616 30.7451 30.0784 30.0651C31.6363 29.2607 33.2469 28.429 34.4553 26.8656C35.969 24.9178 34.6107 23.2761 33.1725 21.5374C33.148 21.5082 33.1235 21.4781 33.099 21.4489C33.2007 21.5666 33.3034 21.6834 33.4051 21.7993C34.931 23.5417 36.3721 25.1881 34.7859 27.1528L34.785 27.1566Z" fill="url(#paint0_radial_351_1193)"/>
<path d="M48.613 20.8265L41.7165 15.0019H39.3165V25.5661H42.3645V19.7415L49.2459 25.5661H51.6609V15.0019H48.613V20.8265ZM25.5084 25.5661H36.148V22.9703H28.5564V21.4312H36.0124V18.971H28.5564V17.5977H36.148V15.0019H25.5084V25.5661ZM19.3955 15.0019H11.623V25.5661H14.671V21.4463H19.3955C21.5091 21.4463 22.9427 20.2991 22.9427 18.2326C22.9427 17.6448 22.792 17.1004 22.5057 16.6031C21.9179 15.6216 20.8008 15.0038 19.3974 15.0038L19.3955 15.0019ZM19.0188 19.0012H14.6578V17.447H19.0188C19.6065 17.447 19.8947 17.7032 19.8947 18.2326C19.8947 18.7619 19.6084 19.003 19.0188 19.003V19.0012ZM95.3081 20.1936C97.1637 20.0881 98.2355 19.3026 98.2355 17.7936C98.2355 16.9629 97.9341 16.2847 97.3445 15.7705C96.7417 15.2581 95.911 15 94.8391 15H86.7652V25.5642H95.1706C97.2089 25.5642 98.5822 24.4321 98.5822 22.7574C98.5822 21.0827 97.3445 20.2369 95.3063 20.1917L95.3081 20.1936ZM94.3135 17.5977C94.856 17.5977 95.1895 17.7786 95.1895 18.3079C95.1895 18.8373 94.873 19.003 94.3135 19.003H89.832L89.8169 17.5996H94.3135V17.5977ZM94.6451 22.9552H89.8452L89.8301 21.4011H94.6451C95.1725 21.4011 95.521 21.6724 95.521 22.2168C95.521 22.7141 95.2347 22.9571 94.6451 22.9571V22.9552ZM63.6154 20.5251C63.6154 22.1998 62.6038 23.0908 60.899 23.0908C59.1942 23.0908 58.1826 22.1998 58.1826 20.5251V15.0019H55.1346V20.073C55.1346 24.449 57.2934 25.8073 60.899 25.8073C64.5046 25.8073 66.6634 24.449 66.6634 20.073V15.0019H63.6154V20.5251ZM108.636 20.4498H109.723C111.791 20.4498 113.119 19.4683 113.119 17.7936C113.119 16.119 111.852 15.0019 109.723 15.0019H101.197V25.5661H104.245L104.23 21.3107H106.191C106.748 21.3107 107.217 21.4162 107.579 21.6422C107.941 21.8683 108.304 22.245 108.681 22.7894C109.058 23.347 109.602 24.2682 110.326 25.5661H114.039C113.436 24.3134 112.891 23.347 112.409 22.6538C111.443 21.2655 110.341 20.5553 108.636 20.4498ZM104.228 19.0012L104.213 17.447H109.193C109.781 17.447 110.069 17.6882 110.069 18.2326C110.069 18.777 109.783 19.003 109.193 19.003H104.228V19.0012ZM125.524 15.0019H122.248L115.924 25.5661H119.532L120.528 23.786H127.244L128.24 25.5661H131.848L125.524 15.0019ZM121.977 21.1901L123.893 17.7484L125.793 21.1901H121.975H121.977ZM76.6399 21.2956L72.4146 15.0019H69.9845V25.5661H73.0324V20.5251L76.3215 25.5661H76.9564L80.2454 20.5251V25.5661H83.2934V15.0019H80.8633L76.638 21.2956H76.6399Z" fill="#FAFAFA"/>
</g>
<defs>
<radialGradient id="paint0_radial_351_1193" cx="0" cy="0" r="1" gradientUnits="userSpaceOnUse" gradientTransform="translate(18.0674 18.9982) scale(17.7245 17.724)">
<stop offset="0.13" stop-color="#563C70"/>
<stop offset="0.32" stop-color="#E1813B"/>
<stop offset="0.74" stop-color="#FF902F"/>
<stop offset="0.76" stop-color="#F99336"/>
<stop offset="0.8" stop-color="#EA9E4C"/>
<stop offset="0.84" stop-color="#D2B070"/>
<stop offset="0.89" stop-color="#B1C8A0"/>
<stop offset="0.94" stop-color="#8BE4D9"/>
</radialGradient>
<clipPath id="clip0_351_1193">
<rect width="132" height="40" fill="white"/>
</clipPath>
</defs>
</svg>
