<svg width="16" height="16" viewBox="0 0 16 16" fill="none" xmlns="http://www.w3.org/2000/svg">
<path d="M5.43923 5.91627C5.79789 5.80053 6.07949 5.63947 6.27603 5.43707C6.44989 5.25813 6.57069 5.0416 6.65603 4.756C6.74563 4.45547 6.78936 4.09547 6.78936 3.65493V2.97787H5.84909V3.86373C5.84909 4.0872 5.82616 4.27253 5.77923 4.42987C5.73069 4.592 5.66056 4.71653 5.55843 4.82187C5.44589 4.9376 5.28963 5.02827 5.09363 5.09147C4.85416 5.1688 4.54989 5.20773 4.18936 5.20773H1.83523V6.1464H3.62296C4.35416 6.1464 4.96536 6.0688 5.43923 5.91573V5.91627ZM5.01869 4.85947C5.17629 4.80853 5.29896 4.73867 5.38349 4.652C5.45709 4.57627 5.50883 4.48347 5.54536 4.36027C5.58536 4.22587 5.60483 4.06347 5.60483 3.864V2.97813H4.64989V3.8344C4.64989 3.87173 4.64563 3.904 4.63709 3.93307C4.62643 3.96907 4.60936 3.99893 4.58483 4.024C4.55923 4.0504 4.52563 4.07067 4.48509 4.08373C4.44563 4.09653 4.39816 4.10293 4.34349 4.10293H1.83496V4.96427H4.18909C4.52429 4.96427 4.80323 4.92907 5.01843 4.85973L5.01869 4.85947ZM4.34403 10.8931H1.83549V11.7608H3.40483V13.0221H4.40643V10.9176C4.40643 10.9096 4.40616 10.9035 4.40563 10.8989C4.39549 10.8963 4.37629 10.8931 4.34403 10.8931ZM10.6934 4.652C10.7779 4.73893 10.9006 4.8088 11.0582 4.85947C11.2734 4.9288 11.5523 4.964 11.8875 4.964H13.6744C13.5342 4.69947 13.3643 4.46293 13.1595 4.25227C13.1094 4.2008 13.0574 4.15093 13.003 4.1024H11.7331C11.6787 4.1024 11.6312 4.096 11.5918 4.0832C11.5512 4.07013 11.5176 4.04987 11.4918 4.02347C11.4672 3.9984 11.4502 3.96853 11.4395 3.93227C11.431 3.90347 11.4267 3.8712 11.4267 3.83387V3.276C11.1347 3.19147 10.8158 3.12507 10.4718 3.07627V3.86347C10.4718 4.06293 10.4912 4.22533 10.5312 4.35973C10.568 4.48293 10.6195 4.57547 10.6934 4.65147V4.652ZM5.38349 10.0997C5.29896 10.0128 5.17629 9.94293 5.01869 9.89227C4.80349 9.82293 4.52456 9.78773 4.18936 9.78773H1.83523V10.6491H4.34376C4.39843 10.6491 4.44589 10.6555 4.48536 10.6683C4.52536 10.6811 4.55896 10.7011 4.58483 10.7277C4.60936 10.7531 4.62643 10.7829 4.63736 10.8192C4.64589 10.8477 4.65016 10.88 4.65016 10.9176V13.0221H5.60509V10.888C5.60509 10.6885 5.58563 10.5261 5.54563 10.3915C5.50883 10.2683 5.45736 10.1757 5.38376 10.0997H5.38349ZM4.40536 3.85307C4.40589 3.84853 4.40616 3.8424 4.40616 3.8344V2.97813H1.83523V3.85893H4.34376C4.37576 3.85893 4.39496 3.85573 4.40536 3.85307ZM11.7328 3.85893H12.692C12.3976 3.6544 12.056 3.48533 11.6704 3.35333V3.8344C11.6704 3.8424 11.6707 3.84853 11.6712 3.85307C11.6814 3.85573 11.7008 3.85893 11.7328 3.85893ZM9.74349 5.43733C9.94003 5.63947 10.2216 5.8008 10.5803 5.91653C11.0542 6.06933 11.6654 6.14693 12.3966 6.14693H14.0672C14.0352 5.9688 13.9958 5.79867 13.9475 5.63707C13.9024 5.4864 13.8502 5.344 13.7915 5.20827H11.887C11.5264 5.20827 11.2222 5.16907 10.9827 5.092C10.7867 5.0288 10.6304 4.93813 10.5179 4.8224C10.4158 4.71733 10.3456 4.5928 10.2971 4.4304C10.2502 4.27307 10.2272 4.08773 10.2272 3.86427V3.0456C9.91389 3.01013 9.58083 2.9888 9.2299 2.9816V3.65547C9.2299 4.096 9.27336 4.45627 9.36323 4.7568C9.44856 5.0424 9.5691 5.25867 9.74323 5.4376L9.74349 5.43733ZM1.83523 13.0221H3.16083V12.0048H1.83523V13.0221ZM11.06 9.89227C10.9024 9.9432 10.7798 10.0131 10.6955 10.0997C10.6216 10.1757 10.5702 10.2683 10.5334 10.3915C10.4934 10.5259 10.4739 10.6883 10.4739 10.8877V11.6579C10.8179 11.6091 11.1368 11.5424 11.4286 11.4579V10.9173C11.4286 10.88 11.4328 10.8477 11.4414 10.8187C11.4523 10.7824 11.4694 10.7525 11.4939 10.7275C11.5198 10.7011 11.5531 10.6811 11.5934 10.668C11.6326 10.6552 11.6803 10.6488 11.7347 10.6488H12.983C13.0443 10.5952 13.103 10.5397 13.159 10.4821C13.3595 10.276 13.5264 10.0451 13.6651 9.7872H11.8894C11.5542 9.7872 11.2752 9.8224 11.06 9.89173V9.89227ZM11.6734 10.8989C11.6728 10.9035 11.6726 10.9096 11.6726 10.9176V11.3811C12.0467 11.2528 12.3798 11.0896 12.668 10.8931H11.735C11.703 10.8931 11.6838 10.8963 11.6734 10.8989ZM10.5827 8.83547C10.224 8.9512 9.94243 9.11253 9.74589 9.31467C9.57203 9.4936 9.45123 9.71013 9.3659 9.99547C9.2763 10.296 9.23256 10.6563 9.23256 11.0968V11.7539C9.5835 11.7464 9.91656 11.7251 10.2299 11.6896V10.888C10.2299 10.6645 10.2528 10.4792 10.2995 10.3219C10.348 10.1595 10.4182 10.0349 10.5203 9.92987C10.6328 9.81413 10.7891 9.72347 10.9848 9.66027C11.2243 9.58293 11.5286 9.544 11.8891 9.544H13.7835C13.8451 9.40293 13.9003 9.2552 13.947 9.0984C13.9936 8.94187 14.0318 8.77733 14.0635 8.60533H12.3982C11.667 8.60533 11.056 8.68293 10.5819 8.83573L10.5827 8.83547ZM10.2432 7.7744C9.7123 7.94587 9.27949 8.20107 8.95656 8.53307C8.65869 8.83947 8.44776 9.20987 8.31203 9.66507C8.19176 10.0683 8.13309 10.5307 8.13309 11.0781V11.7571H8.95256C8.96403 11.7571 8.97523 11.7571 8.98669 11.7571V11.0787C8.98669 10.6147 9.03363 10.2323 9.13016 9.90933C9.22696 9.58453 9.36643 9.33627 9.56883 9.128C9.79336 8.89707 10.1086 8.71493 10.5056 8.58667C11.0035 8.42587 11.6398 8.34453 12.3966 8.34453H14.1056C14.1411 8.08 14.1606 7.79627 14.1648 7.49093H12.3966C11.5507 7.49093 10.8262 7.5864 10.2432 7.7744ZM8.95656 6.20213C9.27923 6.53413 9.7123 6.78933 10.2432 6.9608C10.8262 7.14907 11.5507 7.24427 12.3966 7.24427H14.1648C14.1606 6.93893 14.1414 6.65493 14.1056 6.39067H12.3966C11.64 6.39067 11.0038 6.30907 10.5056 6.14853C10.1086 6.02027 9.79336 5.83813 9.56883 5.6072C9.36643 5.39893 9.22696 5.15067 9.13016 4.82613C9.03363 4.50267 8.98669 4.11947 8.98669 3.6552V2.9784C8.97523 2.9784 8.96403 2.9784 8.95256 2.9784H8.13309V3.65547C8.13309 4.204 8.19176 4.66667 8.31229 5.07067C8.44829 5.52613 8.65896 5.89627 8.95683 6.20267L8.95656 6.20213ZM7.06296 8.53307C6.74029 8.20107 6.30723 7.94587 5.77629 7.7744C5.19336 7.58613 4.46883 7.49093 3.62296 7.49093H1.83523V8.34453H3.62296C4.34456 8.34453 4.95629 8.41893 5.44349 8.56507C5.48696 8.57733 5.52963 8.58987 5.57123 8.60347C5.96829 8.73173 6.28349 8.91387 6.50803 9.1448C6.71043 9.35307 6.8499 9.60133 6.94669 9.92587C7.04323 10.2493 7.09016 10.6325 7.09016 11.0968V13.0221H7.88669V11.0803C7.88669 10.5317 7.82803 10.0691 7.70776 9.66533C7.57176 9.20987 7.36109 8.83973 7.06323 8.53333L7.06296 8.53307ZM6.27603 9.29787C6.07949 9.09573 5.79789 8.9344 5.43923 8.81867C5.41709 8.81147 5.39443 8.8048 5.37203 8.79787C4.91709 8.66987 4.34936 8.6048 3.68029 8.6048H1.83549V9.54347H4.18963C4.55016 9.54347 4.85443 9.58267 5.09389 9.65973C5.28989 9.72293 5.44616 9.8136 5.55869 9.92933C5.66083 10.0344 5.73096 10.1589 5.77949 10.3213C5.82643 10.4789 5.84936 10.664 5.84936 10.8875V13.0216H6.78963V11.0797C6.78963 10.6392 6.74616 10.2789 6.65629 9.9784C6.57096 9.6928 6.45043 9.47653 6.27629 9.2976L6.27603 9.29787ZM7.88669 2.97787H7.09016V3.65493C7.09016 4.11947 7.04323 4.5024 6.94669 4.82587C6.84963 5.15067 6.71043 5.39867 6.50803 5.60693C6.28349 5.83787 5.96829 6.02 5.57123 6.14827C5.07309 6.30907 4.43683 6.3904 3.68003 6.3904H1.83523V7.244H3.62296C4.46883 7.244 5.19336 7.14853 5.77629 6.96053C6.30723 6.78907 6.74003 6.53387 7.06296 6.20187C7.36083 5.89547 7.57176 5.52507 7.70749 5.06987C7.82803 4.66613 7.88669 4.2032 7.88669 3.65467V2.9776V2.97787Z" fill="#FAFAFA"/>
</svg>
